<svg xmlns="http://www.w3.org/2000/svg" xmlns:xlink="http://www.w3.org/1999/xlink" width="500" zoomAndPan="magnify" viewBox="0 0 375 374.999991" height="500" preserveAspectRatio="xMidYMid meet" version="1.0"><defs><g/><clipPath id="6a0f4444b7"><path d="M 58 89 L 339 89 L 339 289 L 58 289 Z M 58 89 " clip-rule="nonzero"/></clipPath><clipPath id="7c6715f96b"><path d="M 53.34375 99.214844 L 331.988281 85.105469 L 342 282.855469 L 63.355469 296.960938 Z M 53.34375 99.214844 " clip-rule="nonzero"/></clipPath><clipPath id="473f2141b3"><path d="M 53.34375 99.214844 L 331.988281 85.105469 L 342 282.855469 L 63.355469 296.960938 Z M 53.34375 99.214844 " clip-rule="nonzero"/></clipPath><clipPath id="d6e04cbcdb"><path d="M 53.34375 99.214844 L 331.988281 85.105469 L 342 282.855469 L 63.355469 296.960938 Z M 53.34375 99.214844 " clip-rule="nonzero"/></clipPath></defs><rect x="-37.5" width="450" fill="#ffffff" y="-37.499999" height="449.999989" fill-opacity="1"/><rect x="-37.5" width="450" fill="#ffffff" y="-37.499999" height="449.999989" fill-opacity="1"/><g fill="#8075ff" fill-opacity="0.4"><g transform="translate(142.61831, 194.581075)"><g><path d="M 20.84375 -56.453125 C 20.9375 -56.785156 21.109375 -57.09375 21.359375 -57.375 C 21.609375 -57.664062 21.90625 -57.847656 22.25 -57.921875 C 22.644531 -58.003906 23.445312 -58.046875 24.65625 -58.046875 C 25.863281 -58.054688 27.195312 -58.015625 28.65625 -57.921875 C 30.113281 -57.835938 31.457031 -57.742188 32.6875 -57.640625 C 33.914062 -57.535156 34.773438 -57.4375 35.265625 -57.34375 C 36.023438 -57.238281 36.484375 -56.804688 36.640625 -56.046875 C 36.648438 -56.003906 36.648438 -55.929688 36.640625 -55.828125 C 36.640625 -55.722656 36.640625 -55.671875 36.640625 -55.671875 C 36.410156 -53.796875 36.226562 -51.164062 36.09375 -47.78125 C 35.957031 -44.40625 35.890625 -40.566406 35.890625 -36.265625 C 35.890625 -31.960938 35.960938 -27.484375 36.109375 -22.828125 C 36.265625 -18.179688 36.523438 -13.648438 36.890625 -9.234375 C 37.054688 -8.484375 36.742188 -8.019531 35.953125 -7.84375 C 35.648438 -7.78125 34.945312 -7.75 33.84375 -7.75 C 32.75 -7.75 31.507812 -7.78125 30.125 -7.84375 C 28.75 -7.914062 27.460938 -8.007812 26.265625 -8.125 C 25.066406 -8.238281 24.195312 -8.335938 23.65625 -8.421875 C 23.269531 -8.503906 22.890625 -8.660156 22.515625 -8.890625 C 22.148438 -9.128906 21.90625 -9.546875 21.78125 -10.140625 C 21.5625 -11.191406 21.351562 -12.414062 21.15625 -13.8125 C 20.957031 -15.21875 20.789062 -16.75 20.65625 -18.40625 L 20.59375 -18.703125 C 20.445312 -19.410156 19.945312 -19.671875 19.09375 -19.484375 L 15.84375 -18.546875 C 15.476562 -18.472656 15.210938 -18.257812 15.046875 -17.90625 C 14.890625 -17.550781 14.800781 -17.1875 14.78125 -16.8125 C 14.851562 -14.738281 14.96875 -12.679688 15.125 -10.640625 C 15.28125 -8.609375 15.425781 -6.617188 15.5625 -4.671875 C 15.625 -3.898438 15.257812 -3.425781 14.46875 -3.25 C 14.113281 -3.175781 13.367188 -3.160156 12.234375 -3.203125 C 11.097656 -3.253906 9.816406 -3.3125 8.390625 -3.375 C 6.960938 -3.4375 5.675781 -3.515625 4.53125 -3.609375 C 3.382812 -3.703125 2.625 -3.78125 2.25 -3.84375 C 1.8125 -3.914062 1.414062 -4.082031 1.0625 -4.34375 C 0.71875 -4.613281 0.488281 -5.019531 0.375 -5.5625 C 0.125 -6.71875 -0.078125 -8.050781 -0.234375 -9.5625 C -0.398438 -11.070312 -0.570312 -12.726562 -0.75 -14.53125 C -0.75 -14.53125 -0.769531 -14.691406 -0.8125 -15.015625 C -0.851562 -15.347656 -0.90625 -15.644531 -0.96875 -15.90625 C -1.007812 -16.09375 -1.238281 -16.691406 -1.65625 -17.703125 C -2.082031 -18.722656 -2.53125 -19.832031 -3 -21.03125 C -3.46875 -22.238281 -3.8125 -23.210938 -4.03125 -23.953125 C -4.125 -24.410156 -4.101562 -24.820312 -3.96875 -25.1875 C -3.832031 -25.5625 -3.4375 -25.921875 -2.78125 -26.265625 C -1.945312 -26.703125 -1.546875 -27.390625 -1.578125 -28.328125 C -1.609375 -31.628906 -1.582031 -34.816406 -1.5 -37.890625 C -1.425781 -40.972656 -1.304688 -43.742188 -1.140625 -46.203125 C -0.984375 -48.671875 -0.789062 -50.5625 -0.5625 -51.875 C -0.3125 -52.664062 0.1875 -53.140625 0.9375 -53.296875 C 1.226562 -53.359375 1.941406 -53.394531 3.078125 -53.40625 C 4.210938 -53.414062 5.476562 -53.382812 6.875 -53.3125 C 8.269531 -53.238281 9.617188 -53.15625 10.921875 -53.0625 C 12.222656 -52.976562 13.203125 -52.878906 13.859375 -52.765625 C 14.617188 -52.660156 15.078125 -52.226562 15.234375 -51.46875 C 15.242188 -51.425781 15.242188 -51.351562 15.234375 -51.25 C 15.234375 -51.144531 15.234375 -51.09375 15.234375 -51.09375 C 15.023438 -49.375 14.859375 -47.019531 14.734375 -44.03125 C 14.609375 -41.050781 14.5625 -37.675781 14.59375 -33.90625 L 14.609375 -33.453125 C 14.773438 -32.703125 15.226562 -32.40625 15.96875 -32.5625 C 16.375 -32.644531 16.820312 -32.753906 17.3125 -32.890625 C 17.8125 -33.023438 18.257812 -33.132812 18.65625 -33.21875 C 19.0625 -33.300781 19.367188 -33.519531 19.578125 -33.875 C 19.785156 -34.238281 19.878906 -34.601562 19.859375 -34.96875 C 19.898438 -38 19.929688 -40.921875 19.953125 -43.734375 C 19.984375 -46.546875 20.078125 -49.050781 20.234375 -51.25 C 20.390625 -53.457031 20.59375 -55.191406 20.84375 -56.453125 Z M 20.84375 -56.453125 "/></g></g></g><g fill="#8075ff" fill-opacity="0.4"><g transform="translate(183.398982, 185.864759)"><g><path d="M 26.625 -54.78125 C 27.070312 -54.625 27.453125 -54.421875 27.765625 -54.171875 C 28.078125 -53.921875 28.375 -53.535156 28.65625 -53.015625 C 29.039062 -52.148438 29.554688 -50.382812 30.203125 -47.71875 C 30.859375 -45.0625 31.566406 -41.953125 32.328125 -38.390625 C 32.878906 -35.796875 33.429688 -33.078125 33.984375 -30.234375 C 34.546875 -27.390625 35.054688 -24.628906 35.515625 -21.953125 C 35.984375 -19.285156 36.375 -16.84375 36.6875 -14.625 C 37.007812 -12.414062 37.210938 -10.617188 37.296875 -9.234375 C 37.367188 -8.929688 37.296875 -8.597656 37.078125 -8.234375 C 36.867188 -7.867188 36.410156 -7.613281 35.703125 -7.46875 C 35.359375 -7.394531 34.609375 -7.289062 33.453125 -7.15625 C 32.304688 -7.019531 31.054688 -6.878906 29.703125 -6.734375 C 28.347656 -6.597656 27.113281 -6.488281 26 -6.40625 C 24.894531 -6.332031 24.175781 -6.316406 23.84375 -6.359375 C 22.84375 -6.398438 22.25 -6.875 22.0625 -7.78125 C 21.90625 -8.519531 21.753906 -9.332031 21.609375 -10.21875 C 21.460938 -11.113281 21.34375 -11.914062 21.25 -12.625 C 21.15625 -13.332031 21.097656 -13.738281 21.078125 -13.84375 C 21.003906 -14.1875 20.828125 -14.460938 20.546875 -14.671875 C 20.265625 -14.878906 19.925781 -14.941406 19.53125 -14.859375 C 19.320312 -14.816406 18.8125 -14.679688 18 -14.453125 C 17.1875 -14.222656 16.359375 -13.992188 15.515625 -13.765625 C 14.671875 -13.535156 14.078125 -13.359375 13.734375 -13.234375 C 13.398438 -13.109375 13.066406 -12.941406 12.734375 -12.734375 C 12.410156 -12.535156 12.179688 -12.054688 12.046875 -11.296875 C 11.941406 -10.535156 11.84375 -9.625 11.75 -8.5625 C 11.664062 -7.5 11.59375 -6.5 11.53125 -5.5625 C 11.46875 -4.632812 11.398438 -3.976562 11.328125 -3.59375 C 11.273438 -2.851562 10.875 -2.40625 10.125 -2.25 C 9.625 -2.144531 8.695312 -2.191406 7.34375 -2.390625 C 6 -2.597656 4.617188 -2.878906 3.203125 -3.234375 C 1.785156 -3.585938 0.707031 -3.894531 -0.03125 -4.15625 C -0.832031 -4.457031 -1.300781 -4.9375 -1.4375 -5.59375 C -1.445312 -5.644531 -1.445312 -5.773438 -1.4375 -5.984375 C -1.425781 -6.191406 -1.410156 -6.675781 -1.390625 -7.4375 C -1.378906 -8.207031 -1.316406 -9.4375 -1.203125 -11.125 C -1.203125 -11.394531 -1.210938 -11.660156 -1.234375 -11.921875 C -1.265625 -12.179688 -1.300781 -12.40625 -1.34375 -12.59375 C -1.457031 -13.09375 -1.648438 -13.734375 -1.921875 -14.515625 C -2.191406 -15.296875 -2.460938 -16.070312 -2.734375 -16.84375 C -3.015625 -17.625 -3.195312 -18.210938 -3.28125 -18.609375 C -3.457031 -19.460938 -3.175781 -20.128906 -2.4375 -20.609375 L -1.515625 -21.109375 C -0.960938 -21.441406 -0.601562 -21.769531 -0.4375 -22.09375 C -0.269531 -22.425781 -0.125 -22.785156 0 -23.171875 C 0.164062 -23.890625 0.425781 -25.1875 0.78125 -27.0625 C 1.132812 -28.945312 1.546875 -31.117188 2.015625 -33.578125 C 2.484375 -36.035156 3 -38.523438 3.5625 -41.046875 C 4.125 -43.578125 4.695312 -45.859375 5.28125 -47.890625 C 5.863281 -49.929688 6.445312 -51.4375 7.03125 -52.40625 C 7.300781 -52.832031 7.550781 -53.117188 7.78125 -53.265625 C 8.007812 -53.421875 8.273438 -53.53125 8.578125 -53.59375 C 8.972656 -53.675781 9.570312 -53.671875 10.375 -53.578125 C 11.175781 -53.492188 11.804688 -53.5 12.265625 -53.59375 C 12.960938 -53.75 13.238281 -54.175781 13.09375 -54.875 C 12.925781 -55.625 13.140625 -56.0625 13.734375 -56.1875 C 14.140625 -56.269531 14.882812 -56.285156 15.96875 -56.234375 C 17.0625 -56.179688 18.300781 -56.078125 19.6875 -55.921875 C 21.082031 -55.773438 22.414062 -55.601562 23.6875 -55.40625 C 24.96875 -55.207031 25.945312 -55 26.625 -54.78125 Z M 14.171875 -28.484375 C 14.171875 -28.484375 14.164062 -28.320312 14.15625 -28 C 14.144531 -27.6875 14.148438 -27.476562 14.171875 -27.375 C 14.273438 -26.925781 14.628906 -26.765625 15.234375 -26.890625 C 15.378906 -26.921875 15.734375 -27.007812 16.296875 -27.15625 C 16.867188 -27.3125 17.179688 -27.394531 17.234375 -27.40625 C 17.628906 -27.539062 17.953125 -27.703125 18.203125 -27.890625 C 18.453125 -28.078125 18.554688 -28.503906 18.515625 -29.171875 C 18.441406 -29.734375 18.320312 -30.507812 18.15625 -31.5 C 18 -32.488281 17.816406 -33.519531 17.609375 -34.59375 C 17.410156 -35.675781 17.222656 -36.628906 17.046875 -37.453125 C 16.867188 -38.273438 16.753906 -38.816406 16.703125 -39.078125 C 16.566406 -39.679688 16.328125 -39.945312 15.984375 -39.875 C 15.628906 -39.789062 15.40625 -39.476562 15.3125 -38.9375 C 15.15625 -37.957031 14.945312 -36.429688 14.6875 -34.359375 C 14.425781 -32.285156 14.253906 -30.328125 14.171875 -28.484375 Z M 14.171875 -28.484375 "/></g></g></g><g fill="#8075ff" fill-opacity="0.4"><g transform="translate(223.428625, 177.308964)"><g><path d="M 14.21875 -4.375 C 14.332031 -3.613281 13.988281 -3.148438 13.1875 -2.984375 C 12.789062 -2.898438 12.050781 -2.859375 10.96875 -2.859375 C 9.894531 -2.859375 8.707031 -2.890625 7.40625 -2.953125 C 6.113281 -3.015625 4.90625 -3.109375 3.78125 -3.234375 C 2.65625 -3.367188 1.796875 -3.472656 1.203125 -3.546875 C 0.109375 -3.785156 -0.535156 -4.359375 -0.734375 -5.265625 C -1.054688 -6.972656 -1.34375 -9.109375 -1.59375 -11.671875 C -1.851562 -14.242188 -2.070312 -17.050781 -2.25 -20.09375 C -2.4375 -23.144531 -2.550781 -26.25 -2.59375 -29.40625 C -2.632812 -32.570312 -2.632812 -35.597656 -2.59375 -38.484375 C -2.5625 -41.367188 -2.46875 -43.96875 -2.3125 -46.28125 C -2.15625 -48.59375 -1.945312 -50.375 -1.6875 -51.625 C -1.488281 -52.351562 -0.984375 -52.804688 -0.171875 -52.984375 C 0.273438 -53.078125 1.035156 -53.117188 2.109375 -53.109375 C 3.191406 -53.109375 4.378906 -53.078125 5.671875 -53.015625 C 6.972656 -52.953125 8.234375 -52.867188 9.453125 -52.765625 C 10.679688 -52.660156 11.707031 -52.535156 12.53125 -52.390625 C 12.851562 -52.347656 13.164062 -52.21875 13.46875 -52 C 13.769531 -51.789062 13.953125 -51.53125 14.015625 -51.21875 C 14.023438 -51.175781 14.03125 -51.101562 14.03125 -51 C 14.03125 -50.894531 14.03125 -50.84375 14.03125 -50.84375 C 13.800781 -48.957031 13.613281 -46.320312 13.46875 -42.9375 C 13.332031 -39.5625 13.265625 -35.722656 13.265625 -31.421875 C 13.265625 -27.128906 13.34375 -22.65625 13.5 -18 C 13.664062 -13.351562 13.90625 -8.8125 14.21875 -4.375 Z M 14.21875 -4.375 "/></g></g></g><g fill="#8075ff" fill-opacity="1"><g transform="translate(136.413456, 190.561543)"><g><path d="M 20.84375 -56.453125 C 20.9375 -56.785156 21.109375 -57.09375 21.359375 -57.375 C 21.609375 -57.664062 21.90625 -57.847656 22.25 -57.921875 C 22.644531 -58.003906 23.445312 -58.046875 24.65625 -58.046875 C 25.863281 -58.054688 27.195312 -58.015625 28.65625 -57.921875 C 30.113281 -57.835938 31.457031 -57.742188 32.6875 -57.640625 C 33.914062 -57.535156 34.773438 -57.4375 35.265625 -57.34375 C 36.023438 -57.238281 36.484375 -56.804688 36.640625 -56.046875 C 36.648438 -56.003906 36.648438 -55.929688 36.640625 -55.828125 C 36.640625 -55.722656 36.640625 -55.671875 36.640625 -55.671875 C 36.410156 -53.796875 36.226562 -51.164062 36.09375 -47.78125 C 35.957031 -44.40625 35.890625 -40.566406 35.890625 -36.265625 C 35.890625 -31.960938 35.960938 -27.484375 36.109375 -22.828125 C 36.265625 -18.179688 36.523438 -13.648438 36.890625 -9.234375 C 37.054688 -8.484375 36.742188 -8.019531 35.953125 -7.84375 C 35.648438 -7.78125 34.945312 -7.75 33.84375 -7.75 C 32.75 -7.75 31.507812 -7.78125 30.125 -7.84375 C 28.75 -7.914062 27.460938 -8.007812 26.265625 -8.125 C 25.066406 -8.238281 24.195312 -8.335938 23.65625 -8.421875 C 23.269531 -8.503906 22.890625 -8.660156 22.515625 -8.890625 C 22.148438 -9.128906 21.90625 -9.546875 21.78125 -10.140625 C 21.5625 -11.191406 21.351562 -12.414062 21.15625 -13.8125 C 20.957031 -15.21875 20.789062 -16.75 20.65625 -18.40625 L 20.59375 -18.703125 C 20.445312 -19.410156 19.945312 -19.671875 19.09375 -19.484375 L 15.84375 -18.546875 C 15.476562 -18.472656 15.210938 -18.257812 15.046875 -17.90625 C 14.890625 -17.550781 14.800781 -17.1875 14.78125 -16.8125 C 14.851562 -14.738281 14.96875 -12.679688 15.125 -10.640625 C 15.28125 -8.609375 15.425781 -6.617188 15.5625 -4.671875 C 15.625 -3.898438 15.257812 -3.425781 14.46875 -3.25 C 14.113281 -3.175781 13.367188 -3.160156 12.234375 -3.203125 C 11.097656 -3.253906 9.816406 -3.3125 8.390625 -3.375 C 6.960938 -3.4375 5.675781 -3.515625 4.53125 -3.609375 C 3.382812 -3.703125 2.625 -3.78125 2.25 -3.84375 C 1.8125 -3.914062 1.414062 -4.082031 1.0625 -4.34375 C 0.71875 -4.613281 0.488281 -5.019531 0.375 -5.5625 C 0.125 -6.71875 -0.078125 -8.050781 -0.234375 -9.5625 C -0.398438 -11.070312 -0.570312 -12.726562 -0.75 -14.53125 C -0.75 -14.53125 -0.769531 -14.691406 -0.8125 -15.015625 C -0.851562 -15.347656 -0.90625 -15.644531 -0.96875 -15.90625 C -1.007812 -16.09375 -1.238281 -16.691406 -1.65625 -17.703125 C -2.082031 -18.722656 -2.53125 -19.832031 -3 -21.03125 C -3.46875 -22.238281 -3.8125 -23.210938 -4.03125 -23.953125 C -4.125 -24.410156 -4.101562 -24.820312 -3.96875 -25.1875 C -3.832031 -25.5625 -3.4375 -25.921875 -2.78125 -26.265625 C -1.945312 -26.703125 -1.546875 -27.390625 -1.578125 -28.328125 C -1.609375 -31.628906 -1.582031 -34.816406 -1.5 -37.890625 C -1.425781 -40.972656 -1.304688 -43.742188 -1.140625 -46.203125 C -0.984375 -48.671875 -0.789062 -50.5625 -0.5625 -51.875 C -0.3125 -52.664062 0.1875 -53.140625 0.9375 -53.296875 C 1.226562 -53.359375 1.941406 -53.394531 3.078125 -53.40625 C 4.210938 -53.414062 5.476562 -53.382812 6.875 -53.3125 C 8.269531 -53.238281 9.617188 -53.15625 10.921875 -53.0625 C 12.222656 -52.976562 13.203125 -52.878906 13.859375 -52.765625 C 14.617188 -52.660156 15.078125 -52.226562 15.234375 -51.46875 C 15.242188 -51.425781 15.242188 -51.351562 15.234375 -51.25 C 15.234375 -51.144531 15.234375 -51.09375 15.234375 -51.09375 C 15.023438 -49.375 14.859375 -47.019531 14.734375 -44.03125 C 14.609375 -41.050781 14.5625 -37.675781 14.59375 -33.90625 L 14.609375 -33.453125 C 14.773438 -32.703125 15.226562 -32.40625 15.96875 -32.5625 C 16.375 -32.644531 16.820312 -32.753906 17.3125 -32.890625 C 17.8125 -33.023438 18.257812 -33.132812 18.65625 -33.21875 C 19.0625 -33.300781 19.367188 -33.519531 19.578125 -33.875 C 19.785156 -34.238281 19.878906 -34.601562 19.859375 -34.96875 C 19.898438 -38 19.929688 -40.921875 19.953125 -43.734375 C 19.984375 -46.546875 20.078125 -49.050781 20.234375 -51.25 C 20.390625 -53.457031 20.59375 -55.191406 20.84375 -56.453125 Z M 20.84375 -56.453125 "/></g></g></g><g fill="#8075ff" fill-opacity="1"><g transform="translate(177.194128, 181.845227)"><g><path d="M 26.625 -54.78125 C 27.070312 -54.625 27.453125 -54.421875 27.765625 -54.171875 C 28.078125 -53.921875 28.375 -53.535156 28.65625 -53.015625 C 29.039062 -52.148438 29.554688 -50.382812 30.203125 -47.71875 C 30.859375 -45.0625 31.566406 -41.953125 32.328125 -38.390625 C 32.878906 -35.796875 33.429688 -33.078125 33.984375 -30.234375 C 34.546875 -27.390625 35.054688 -24.628906 35.515625 -21.953125 C 35.984375 -19.285156 36.375 -16.84375 36.6875 -14.625 C 37.007812 -12.414062 37.210938 -10.617188 37.296875 -9.234375 C 37.367188 -8.929688 37.296875 -8.597656 37.078125 -8.234375 C 36.867188 -7.867188 36.410156 -7.613281 35.703125 -7.46875 C 35.359375 -7.394531 34.609375 -7.289062 33.453125 -7.15625 C 32.304688 -7.019531 31.054688 -6.878906 29.703125 -6.734375 C 28.347656 -6.597656 27.113281 -6.488281 26 -6.40625 C 24.894531 -6.332031 24.175781 -6.316406 23.84375 -6.359375 C 22.84375 -6.398438 22.25 -6.875 22.0625 -7.78125 C 21.90625 -8.519531 21.753906 -9.332031 21.609375 -10.21875 C 21.460938 -11.113281 21.34375 -11.914062 21.25 -12.625 C 21.15625 -13.332031 21.097656 -13.738281 21.078125 -13.84375 C 21.003906 -14.1875 20.828125 -14.460938 20.546875 -14.671875 C 20.265625 -14.878906 19.925781 -14.941406 19.53125 -14.859375 C 19.320312 -14.816406 18.8125 -14.679688 18 -14.453125 C 17.1875 -14.222656 16.359375 -13.992188 15.515625 -13.765625 C 14.671875 -13.535156 14.078125 -13.359375 13.734375 -13.234375 C 13.398438 -13.109375 13.066406 -12.941406 12.734375 -12.734375 C 12.410156 -12.535156 12.179688 -12.054688 12.046875 -11.296875 C 11.941406 -10.535156 11.84375 -9.625 11.75 -8.5625 C 11.664062 -7.5 11.59375 -6.5 11.53125 -5.5625 C 11.46875 -4.632812 11.398438 -3.976562 11.328125 -3.59375 C 11.273438 -2.851562 10.875 -2.40625 10.125 -2.25 C 9.625 -2.144531 8.695312 -2.191406 7.34375 -2.390625 C 6 -2.597656 4.617188 -2.878906 3.203125 -3.234375 C 1.785156 -3.585938 0.707031 -3.894531 -0.03125 -4.15625 C -0.832031 -4.457031 -1.300781 -4.9375 -1.4375 -5.59375 C -1.445312 -5.644531 -1.445312 -5.773438 -1.4375 -5.984375 C -1.425781 -6.191406 -1.410156 -6.675781 -1.390625 -7.4375 C -1.378906 -8.207031 -1.316406 -9.4375 -1.203125 -11.125 C -1.203125 -11.394531 -1.210938 -11.660156 -1.234375 -11.921875 C -1.265625 -12.179688 -1.300781 -12.40625 -1.34375 -12.59375 C -1.457031 -13.09375 -1.648438 -13.734375 -1.921875 -14.515625 C -2.191406 -15.296875 -2.460938 -16.070312 -2.734375 -16.84375 C -3.015625 -17.625 -3.195312 -18.210938 -3.28125 -18.609375 C -3.457031 -19.460938 -3.175781 -20.128906 -2.4375 -20.609375 L -1.515625 -21.109375 C -0.960938 -21.441406 -0.601562 -21.769531 -0.4375 -22.09375 C -0.269531 -22.425781 -0.125 -22.785156 0 -23.171875 C 0.164062 -23.890625 0.425781 -25.1875 0.78125 -27.0625 C 1.132812 -28.945312 1.546875 -31.117188 2.015625 -33.578125 C 2.484375 -36.035156 3 -38.523438 3.5625 -41.046875 C 4.125 -43.578125 4.695312 -45.859375 5.28125 -47.890625 C 5.863281 -49.929688 6.445312 -51.4375 7.03125 -52.40625 C 7.300781 -52.832031 7.550781 -53.117188 7.78125 -53.265625 C 8.007812 -53.421875 8.273438 -53.53125 8.578125 -53.59375 C 8.972656 -53.675781 9.570312 -53.671875 10.375 -53.578125 C 11.175781 -53.492188 11.804688 -53.5 12.265625 -53.59375 C 12.960938 -53.75 13.238281 -54.175781 13.09375 -54.875 C 12.925781 -55.625 13.140625 -56.0625 13.734375 -56.1875 C 14.140625 -56.269531 14.882812 -56.285156 15.96875 -56.234375 C 17.0625 -56.179688 18.300781 -56.078125 19.6875 -55.921875 C 21.082031 -55.773438 22.414062 -55.601562 23.6875 -55.40625 C 24.96875 -55.207031 25.945312 -55 26.625 -54.78125 Z M 14.171875 -28.484375 C 14.171875 -28.484375 14.164062 -28.320312 14.15625 -28 C 14.144531 -27.6875 14.148438 -27.476562 14.171875 -27.375 C 14.273438 -26.925781 14.628906 -26.765625 15.234375 -26.890625 C 15.378906 -26.921875 15.734375 -27.007812 16.296875 -27.15625 C 16.867188 -27.3125 17.179688 -27.394531 17.234375 -27.40625 C 17.628906 -27.539062 17.953125 -27.703125 18.203125 -27.890625 C 18.453125 -28.078125 18.554688 -28.503906 18.515625 -29.171875 C 18.441406 -29.734375 18.320312 -30.507812 18.15625 -31.5 C 18 -32.488281 17.816406 -33.519531 17.609375 -34.59375 C 17.410156 -35.675781 17.222656 -36.628906 17.046875 -37.453125 C 16.867188 -38.273438 16.753906 -38.816406 16.703125 -39.078125 C 16.566406 -39.679688 16.328125 -39.945312 15.984375 -39.875 C 15.628906 -39.789062 15.40625 -39.476562 15.3125 -38.9375 C 15.15625 -37.957031 14.945312 -36.429688 14.6875 -34.359375 C 14.425781 -32.285156 14.253906 -30.328125 14.171875 -28.484375 Z M 14.171875 -28.484375 "/></g></g></g><g fill="#8075ff" fill-opacity="1"><g transform="translate(217.22377, 173.289433)"><g><path d="M 14.21875 -4.375 C 14.332031 -3.613281 13.988281 -3.148438 13.1875 -2.984375 C 12.789062 -2.898438 12.050781 -2.859375 10.96875 -2.859375 C 9.894531 -2.859375 8.707031 -2.890625 7.40625 -2.953125 C 6.113281 -3.015625 4.90625 -3.109375 3.78125 -3.234375 C 2.65625 -3.367188 1.796875 -3.472656 1.203125 -3.546875 C 0.109375 -3.785156 -0.535156 -4.359375 -0.734375 -5.265625 C -1.054688 -6.972656 -1.34375 -9.109375 -1.59375 -11.671875 C -1.851562 -14.242188 -2.070312 -17.050781 -2.25 -20.09375 C -2.4375 -23.144531 -2.550781 -26.25 -2.59375 -29.40625 C -2.632812 -32.570312 -2.632812 -35.597656 -2.59375 -38.484375 C -2.5625 -41.367188 -2.46875 -43.96875 -2.3125 -46.28125 C -2.15625 -48.59375 -1.945312 -50.375 -1.6875 -51.625 C -1.488281 -52.351562 -0.984375 -52.804688 -0.171875 -52.984375 C 0.273438 -53.078125 1.035156 -53.117188 2.109375 -53.109375 C 3.191406 -53.109375 4.378906 -53.078125 5.671875 -53.015625 C 6.972656 -52.953125 8.234375 -52.867188 9.453125 -52.765625 C 10.679688 -52.660156 11.707031 -52.535156 12.53125 -52.390625 C 12.851562 -52.347656 13.164062 -52.21875 13.46875 -52 C 13.769531 -51.789062 13.953125 -51.53125 14.015625 -51.21875 C 14.023438 -51.175781 14.03125 -51.101562 14.03125 -51 C 14.03125 -50.894531 14.03125 -50.84375 14.03125 -50.84375 C 13.800781 -48.957031 13.613281 -46.320312 13.46875 -42.9375 C 13.332031 -39.5625 13.265625 -35.722656 13.265625 -31.421875 C 13.265625 -27.128906 13.34375 -22.65625 13.5 -18 C 13.664062 -13.351562 13.90625 -8.8125 14.21875 -4.375 Z M 14.21875 -4.375 "/></g></g></g><g fill="#8075ff" fill-opacity="0.4"><g transform="translate(241.767564, 173.389264)"><g/></g></g><g fill="#8075ff" fill-opacity="1"><g transform="translate(235.562709, 169.369733)"><g/></g></g><g fill="#8075ff" fill-opacity="0.4"><g transform="translate(113.782768, 256.942169)"><g><path d="M 20.84375 -56.453125 C 20.9375 -56.785156 21.109375 -57.09375 21.359375 -57.375 C 21.609375 -57.664062 21.90625 -57.847656 22.25 -57.921875 C 22.644531 -58.003906 23.445312 -58.046875 24.65625 -58.046875 C 25.863281 -58.054688 27.195312 -58.015625 28.65625 -57.921875 C 30.113281 -57.835938 31.457031 -57.742188 32.6875 -57.640625 C 33.914062 -57.535156 34.773438 -57.4375 35.265625 -57.34375 C 36.023438 -57.238281 36.484375 -56.804688 36.640625 -56.046875 C 36.648438 -56.003906 36.648438 -55.929688 36.640625 -55.828125 C 36.640625 -55.722656 36.640625 -55.671875 36.640625 -55.671875 C 36.410156 -53.796875 36.226562 -51.164062 36.09375 -47.78125 C 35.957031 -44.40625 35.890625 -40.566406 35.890625 -36.265625 C 35.890625 -31.960938 35.960938 -27.484375 36.109375 -22.828125 C 36.265625 -18.179688 36.523438 -13.648438 36.890625 -9.234375 C 37.054688 -8.484375 36.742188 -8.019531 35.953125 -7.84375 C 35.648438 -7.78125 34.945312 -7.75 33.84375 -7.75 C 32.75 -7.75 31.507812 -7.78125 30.125 -7.84375 C 28.75 -7.914062 27.460938 -8.007812 26.265625 -8.125 C 25.066406 -8.238281 24.195312 -8.335938 23.65625 -8.421875 C 23.269531 -8.503906 22.890625 -8.660156 22.515625 -8.890625 C 22.148438 -9.128906 21.90625 -9.546875 21.78125 -10.140625 C 21.5625 -11.191406 21.351562 -12.414062 21.15625 -13.8125 C 20.957031 -15.21875 20.789062 -16.75 20.65625 -18.40625 L 20.59375 -18.703125 C 20.445312 -19.410156 19.945312 -19.671875 19.09375 -19.484375 L 15.84375 -18.546875 C 15.476562 -18.472656 15.210938 -18.257812 15.046875 -17.90625 C 14.890625 -17.550781 14.800781 -17.1875 14.78125 -16.8125 C 14.851562 -14.738281 14.96875 -12.679688 15.125 -10.640625 C 15.28125 -8.609375 15.425781 -6.617188 15.5625 -4.671875 C 15.625 -3.898438 15.257812 -3.425781 14.46875 -3.25 C 14.113281 -3.175781 13.367188 -3.160156 12.234375 -3.203125 C 11.097656 -3.253906 9.816406 -3.3125 8.390625 -3.375 C 6.960938 -3.4375 5.675781 -3.515625 4.53125 -3.609375 C 3.382812 -3.703125 2.625 -3.78125 2.25 -3.84375 C 1.8125 -3.914062 1.414062 -4.082031 1.0625 -4.34375 C 0.71875 -4.613281 0.488281 -5.019531 0.375 -5.5625 C 0.125 -6.71875 -0.078125 -8.050781 -0.234375 -9.5625 C -0.398438 -11.070312 -0.570312 -12.726562 -0.75 -14.53125 C -0.75 -14.53125 -0.769531 -14.691406 -0.8125 -15.015625 C -0.851562 -15.347656 -0.90625 -15.644531 -0.96875 -15.90625 C -1.007812 -16.09375 -1.238281 -16.691406 -1.65625 -17.703125 C -2.082031 -18.722656 -2.53125 -19.832031 -3 -21.03125 C -3.46875 -22.238281 -3.8125 -23.210938 -4.03125 -23.953125 C -4.125 -24.410156 -4.101562 -24.820312 -3.96875 -25.1875 C -3.832031 -25.5625 -3.4375 -25.921875 -2.78125 -26.265625 C -1.945312 -26.703125 -1.546875 -27.390625 -1.578125 -28.328125 C -1.609375 -31.628906 -1.582031 -34.816406 -1.5 -37.890625 C -1.425781 -40.972656 -1.304688 -43.742188 -1.140625 -46.203125 C -0.984375 -48.671875 -0.789062 -50.5625 -0.5625 -51.875 C -0.3125 -52.664062 0.1875 -53.140625 0.9375 -53.296875 C 1.226562 -53.359375 1.941406 -53.394531 3.078125 -53.40625 C 4.210938 -53.414062 5.476562 -53.382812 6.875 -53.3125 C 8.269531 -53.238281 9.617188 -53.15625 10.921875 -53.0625 C 12.222656 -52.976562 13.203125 -52.878906 13.859375 -52.765625 C 14.617188 -52.660156 15.078125 -52.226562 15.234375 -51.46875 C 15.242188 -51.425781 15.242188 -51.351562 15.234375 -51.25 C 15.234375 -51.144531 15.234375 -51.09375 15.234375 -51.09375 C 15.023438 -49.375 14.859375 -47.019531 14.734375 -44.03125 C 14.609375 -41.050781 14.5625 -37.675781 14.59375 -33.90625 L 14.609375 -33.453125 C 14.773438 -32.703125 15.226562 -32.40625 15.96875 -32.5625 C 16.375 -32.644531 16.820312 -32.753906 17.3125 -32.890625 C 17.8125 -33.023438 18.257812 -33.132812 18.65625 -33.21875 C 19.0625 -33.300781 19.367188 -33.519531 19.578125 -33.875 C 19.785156 -34.238281 19.878906 -34.601562 19.859375 -34.96875 C 19.898438 -38 19.929688 -40.921875 19.953125 -43.734375 C 19.984375 -46.546875 20.078125 -49.050781 20.234375 -51.25 C 20.390625 -53.457031 20.59375 -55.191406 20.84375 -56.453125 Z M 20.84375 -56.453125 "/></g></g></g><g fill="#8075ff" fill-opacity="0.4"><g transform="translate(154.563441, 248.225853)"><g><path d="M 30.875 -55.453125 C 31.738281 -55.316406 32.304688 -54.988281 32.578125 -54.46875 C 32.847656 -53.945312 33.054688 -53.335938 33.203125 -52.640625 C 33.640625 -50.585938 34.03125 -48.078125 34.375 -45.109375 C 34.71875 -42.148438 34.925781 -38.953125 35 -35.515625 C 35.082031 -32.078125 34.941406 -28.65625 34.578125 -25.25 C 34.210938 -21.84375 33.53125 -18.671875 32.53125 -15.734375 C 31.53125 -12.804688 30.144531 -10.335938 28.375 -8.328125 C 26.601562 -6.328125 24.34375 -5.035156 21.59375 -4.453125 C 20.1875 -4.148438 18.460938 -4.054688 16.421875 -4.171875 C 14.390625 -4.285156 12.363281 -4.582031 10.34375 -5.0625 C 8.332031 -5.550781 6.671875 -6.179688 5.359375 -6.953125 C 3.609375 -8.003906 2.191406 -9.457031 1.109375 -11.3125 C 0.0351562 -13.175781 -0.726562 -15.1875 -1.1875 -17.34375 C -1.875 -20.550781 -2.316406 -23.847656 -2.515625 -27.234375 C -2.722656 -30.617188 -2.753906 -33.867188 -2.609375 -36.984375 C -2.460938 -40.109375 -2.238281 -42.878906 -1.9375 -45.296875 C -1.644531 -47.710938 -1.335938 -49.515625 -1.015625 -50.703125 C -0.878906 -51.296875 -0.710938 -51.742188 -0.515625 -52.046875 C -0.316406 -52.347656 0.101562 -52.566406 0.75 -52.703125 C 1.457031 -52.859375 2.566406 -52.941406 4.078125 -52.953125 C 5.597656 -52.960938 7.164062 -52.914062 8.78125 -52.8125 C 10.394531 -52.707031 11.753906 -52.535156 12.859375 -52.296875 C 13.609375 -52.203125 14.0625 -51.785156 14.21875 -51.046875 C 14.238281 -50.941406 14.242188 -50.832031 14.234375 -50.71875 C 14.234375 -50.613281 14.234375 -50.5625 14.234375 -50.5625 C 13.984375 -48.3125 13.753906 -45.765625 13.546875 -42.921875 C 13.347656 -40.078125 13.222656 -37.195312 13.171875 -34.28125 C 13.117188 -31.363281 13.148438 -28.65625 13.265625 -26.15625 C 13.378906 -23.664062 13.59375 -21.695312 13.90625 -20.25 C 14.125 -19.238281 14.429688 -18.460938 14.828125 -17.921875 C 15.234375 -17.390625 15.660156 -17.171875 16.109375 -17.265625 C 16.804688 -17.410156 17.316406 -17.945312 17.640625 -18.875 C 17.960938 -19.8125 18.238281 -21.351562 18.46875 -23.5 C 18.769531 -26.03125 18.957031 -28.816406 19.03125 -31.859375 C 19.113281 -34.910156 19.117188 -37.925781 19.046875 -40.90625 C 18.984375 -43.882812 18.894531 -46.578125 18.78125 -48.984375 C 18.664062 -51.390625 18.550781 -53.210938 18.4375 -54.453125 C 18.414062 -55.335938 18.773438 -55.859375 19.515625 -56.015625 C 19.828125 -56.078125 20.46875 -56.101562 21.4375 -56.09375 C 22.40625 -56.09375 23.492188 -56.066406 24.703125 -56.015625 C 25.921875 -55.960938 27.085938 -55.882812 28.203125 -55.78125 C 29.328125 -55.6875 30.21875 -55.578125 30.875 -55.453125 Z M 30.875 -55.453125 "/></g></g></g><g fill="#8075ff" fill-opacity="0.4"><g transform="translate(194.142474, 239.76637)"><g><path d="M 14.21875 -4.375 C 14.332031 -3.613281 13.988281 -3.148438 13.1875 -2.984375 C 12.789062 -2.898438 12.050781 -2.859375 10.96875 -2.859375 C 9.894531 -2.859375 8.707031 -2.890625 7.40625 -2.953125 C 6.113281 -3.015625 4.90625 -3.109375 3.78125 -3.234375 C 2.65625 -3.367188 1.796875 -3.472656 1.203125 -3.546875 C 0.109375 -3.785156 -0.535156 -4.359375 -0.734375 -5.265625 C -1.054688 -6.972656 -1.34375 -9.109375 -1.59375 -11.671875 C -1.851562 -14.242188 -2.070312 -17.050781 -2.25 -20.09375 C -2.4375 -23.144531 -2.550781 -26.25 -2.59375 -29.40625 C -2.632812 -32.570312 -2.632812 -35.597656 -2.59375 -38.484375 C -2.5625 -41.367188 -2.46875 -43.96875 -2.3125 -46.28125 C -2.15625 -48.59375 -1.945312 -50.375 -1.6875 -51.625 C -1.488281 -52.351562 -0.984375 -52.804688 -0.171875 -52.984375 C 0.273438 -53.078125 1.035156 -53.117188 2.109375 -53.109375 C 3.191406 -53.109375 4.378906 -53.078125 5.671875 -53.015625 C 6.972656 -52.953125 8.234375 -52.867188 9.453125 -52.765625 C 10.679688 -52.660156 11.707031 -52.535156 12.53125 -52.390625 C 12.851562 -52.347656 13.164062 -52.21875 13.46875 -52 C 13.769531 -51.789062 13.953125 -51.53125 14.015625 -51.21875 C 14.023438 -51.175781 14.03125 -51.101562 14.03125 -51 C 14.03125 -50.894531 14.03125 -50.84375 14.03125 -50.84375 C 13.800781 -48.957031 13.613281 -46.320312 13.46875 -42.9375 C 13.332031 -39.5625 13.265625 -35.722656 13.265625 -31.421875 C 13.265625 -27.128906 13.34375 -22.65625 13.5 -18 C 13.664062 -13.351562 13.90625 -8.8125 14.21875 -4.375 Z M 14.21875 -4.375 "/></g></g></g><g fill="#8075ff" fill-opacity="0.4"><g transform="translate(212.467487, 235.849647)"><g><path d="M 2.484375 -17.015625 C 5.679688 -17.503906 8.144531 -17.195312 9.875 -16.09375 C 11.601562 -14.988281 12.703125 -13.332031 13.171875 -11.125 C 13.671875 -8.78125 13.375 -6.664062 12.28125 -4.78125 C 11.195312 -2.894531 9.351562 -1.675781 6.75 -1.125 C 4.195312 -0.570312 2.191406 -0.941406 0.734375 -2.234375 C -0.710938 -3.523438 -1.664062 -5.25 -2.125 -7.40625 C -2.613281 -10.644531 -1.789062 -13.40625 0.34375 -15.6875 C 0.96875 -16.40625 1.679688 -16.847656 2.484375 -17.015625 Z M 2.484375 -17.015625 "/></g></g></g><g fill="#8075ff" fill-opacity="0.4"><g transform="translate(229.215351, 232.270018)"><g><path d="M 13.546875 -37.296875 C 13.890625 -38.160156 14.332031 -39.109375 14.875 -40.140625 C 15.414062 -41.171875 16.082031 -42.097656 16.875 -42.921875 C 17.664062 -43.742188 18.613281 -44.269531 19.71875 -44.5 C 20.0625 -44.570312 20.382812 -44.507812 20.6875 -44.3125 C 20.988281 -44.125 21.1875 -43.804688 21.28125 -43.359375 C 21.5 -42.359375 21.753906 -41.050781 22.046875 -39.4375 C 22.335938 -37.820312 22.625 -36.101562 22.90625 -34.28125 C 23.195312 -32.457031 23.445312 -30.695312 23.65625 -29 C 23.75 -28.03125 23.363281 -27.375 22.5 -27.03125 C 21.476562 -26.65625 20.242188 -26.179688 18.796875 -25.609375 C 17.359375 -25.046875 16.082031 -24.515625 14.96875 -24.015625 C 14.394531 -23.785156 14.007812 -23.4375 13.8125 -22.96875 C 13.625 -22.507812 13.523438 -22.070312 13.515625 -21.65625 L 13.953125 -4.546875 C 13.878906 -3.648438 13.472656 -3.125 12.734375 -2.96875 C 12.179688 -2.84375 11.113281 -2.796875 9.53125 -2.828125 C 7.945312 -2.859375 6.285156 -2.960938 4.546875 -3.140625 C 2.804688 -3.316406 1.363281 -3.539062 0.21875 -3.8125 C -0.5625 -4.007812 -1.035156 -4.484375 -1.203125 -5.234375 C -1.222656 -5.335938 -1.234375 -5.46875 -1.234375 -5.625 C -1.242188 -5.78125 -1.25 -5.859375 -1.25 -5.859375 C -1.3125 -7.148438 -1.382812 -8.910156 -1.46875 -11.140625 C -1.5625 -13.367188 -1.664062 -15.804688 -1.78125 -18.453125 C -1.90625 -21.109375 -2.03125 -23.785156 -2.15625 -26.484375 C -2.289062 -29.179688 -2.410156 -31.644531 -2.515625 -33.875 C -2.628906 -36.101562 -2.726562 -37.882812 -2.8125 -39.21875 C -2.84375 -39.632812 -2.734375 -40 -2.484375 -40.3125 C -2.234375 -40.625 -1.9375 -40.816406 -1.59375 -40.890625 C -1.289062 -40.960938 -0.628906 -41.039062 0.390625 -41.125 C 1.421875 -41.21875 2.570312 -41.28125 3.84375 -41.3125 C 5.125 -41.34375 6.335938 -41.363281 7.484375 -41.375 C 8.640625 -41.382812 9.488281 -41.347656 10.03125 -41.265625 C 10.675781 -41.191406 11.148438 -40.988281 11.453125 -40.65625 C 11.765625 -40.332031 11.988281 -39.972656 12.125 -39.578125 L 12.75 -37.359375 C 12.84375 -36.910156 12.988281 -36.707031 13.1875 -36.75 C 13.289062 -36.769531 13.410156 -36.953125 13.546875 -37.296875 Z M 13.546875 -37.296875 "/></g></g></g><g fill="#8075ff" fill-opacity="0.4"><g transform="translate(257.153488, 226.298619)"><g><path d="M 14.78125 -15.40625 C 15.382812 -15.539062 15.847656 -16.113281 16.171875 -17.125 C 16.503906 -18.132812 16.71875 -19.410156 16.8125 -20.953125 C 16.90625 -22.492188 16.894531 -24.078125 16.78125 -25.703125 C 16.664062 -27.328125 16.46875 -28.8125 16.1875 -30.15625 C 15.84375 -31.769531 15.394531 -32.519531 14.84375 -32.40625 C 14.382812 -32.300781 13.988281 -31.726562 13.65625 -30.6875 C 13.332031 -29.65625 13.097656 -28.363281 12.953125 -26.8125 C 12.816406 -25.257812 12.785156 -23.640625 12.859375 -21.953125 C 12.929688 -20.265625 13.117188 -18.722656 13.421875 -17.328125 C 13.722656 -15.921875 14.175781 -15.28125 14.78125 -15.40625 Z M 31.890625 -30.53125 C 32.242188 -28.875 32.429688 -27 32.453125 -24.90625 C 32.484375 -22.820312 32.300781 -20.675781 31.90625 -18.46875 C 31.507812 -16.269531 30.851562 -14.195312 29.9375 -12.25 C 29.019531 -10.3125 27.789062 -8.640625 26.25 -7.234375 C 24.71875 -5.828125 22.800781 -4.875 20.5 -4.375 C 19.40625 -4.144531 17.859375 -3.988281 15.859375 -3.90625 C 13.859375 -3.820312 11.722656 -4.003906 9.453125 -4.453125 C 7.179688 -4.910156 5.003906 -5.863281 2.921875 -7.3125 C 1.617188 -8.226562 0.53125 -9.585938 -0.34375 -11.390625 C -1.226562 -13.203125 -1.898438 -15.179688 -2.359375 -17.328125 C -2.679688 -18.828125 -2.851562 -20.597656 -2.875 -22.640625 C -2.894531 -24.679688 -2.710938 -26.773438 -2.328125 -28.921875 C -1.941406 -31.066406 -1.300781 -33.113281 -0.40625 -35.0625 C 0.476562 -37.007812 1.660156 -38.675781 3.140625 -40.0625 C 4.628906 -41.445312 6.472656 -42.375 8.671875 -42.84375 C 9.671875 -43.0625 11.15625 -43.144531 13.125 -43.09375 C 15.101562 -43.050781 17.203125 -42.847656 19.421875 -42.484375 C 21.648438 -42.117188 23.59375 -41.507812 25.25 -40.65625 C 26.9375 -39.820312 28.351562 -38.4375 29.5 -36.5 C 30.65625 -34.570312 31.453125 -32.582031 31.890625 -30.53125 Z M 31.890625 -30.53125 "/></g></g></g><g fill="#8075ff" fill-opacity="1"><g transform="translate(107.577914, 252.922638)"><g><path d="M 20.84375 -56.453125 C 20.9375 -56.785156 21.109375 -57.09375 21.359375 -57.375 C 21.609375 -57.664062 21.90625 -57.847656 22.25 -57.921875 C 22.644531 -58.003906 23.445312 -58.046875 24.65625 -58.046875 C 25.863281 -58.054688 27.195312 -58.015625 28.65625 -57.921875 C 30.113281 -57.835938 31.457031 -57.742188 32.6875 -57.640625 C 33.914062 -57.535156 34.773438 -57.4375 35.265625 -57.34375 C 36.023438 -57.238281 36.484375 -56.804688 36.640625 -56.046875 C 36.648438 -56.003906 36.648438 -55.929688 36.640625 -55.828125 C 36.640625 -55.722656 36.640625 -55.671875 36.640625 -55.671875 C 36.410156 -53.796875 36.226562 -51.164062 36.09375 -47.78125 C 35.957031 -44.40625 35.890625 -40.566406 35.890625 -36.265625 C 35.890625 -31.960938 35.960938 -27.484375 36.109375 -22.828125 C 36.265625 -18.179688 36.523438 -13.648438 36.890625 -9.234375 C 37.054688 -8.484375 36.742188 -8.019531 35.953125 -7.84375 C 35.648438 -7.78125 34.945312 -7.75 33.84375 -7.75 C 32.75 -7.75 31.507812 -7.78125 30.125 -7.84375 C 28.75 -7.914062 27.460938 -8.007812 26.265625 -8.125 C 25.066406 -8.238281 24.195312 -8.335938 23.65625 -8.421875 C 23.269531 -8.503906 22.890625 -8.660156 22.515625 -8.890625 C 22.148438 -9.128906 21.90625 -9.546875 21.78125 -10.140625 C 21.5625 -11.191406 21.351562 -12.414062 21.15625 -13.8125 C 20.957031 -15.21875 20.789062 -16.75 20.65625 -18.40625 L 20.59375 -18.703125 C 20.445312 -19.410156 19.945312 -19.671875 19.09375 -19.484375 L 15.84375 -18.546875 C 15.476562 -18.472656 15.210938 -18.257812 15.046875 -17.90625 C 14.890625 -17.550781 14.800781 -17.1875 14.78125 -16.8125 C 14.851562 -14.738281 14.96875 -12.679688 15.125 -10.640625 C 15.28125 -8.609375 15.425781 -6.617188 15.5625 -4.671875 C 15.625 -3.898438 15.257812 -3.425781 14.46875 -3.25 C 14.113281 -3.175781 13.367188 -3.160156 12.234375 -3.203125 C 11.097656 -3.253906 9.816406 -3.3125 8.390625 -3.375 C 6.960938 -3.4375 5.675781 -3.515625 4.53125 -3.609375 C 3.382812 -3.703125 2.625 -3.78125 2.25 -3.84375 C 1.8125 -3.914062 1.414062 -4.082031 1.0625 -4.34375 C 0.71875 -4.613281 0.488281 -5.019531 0.375 -5.5625 C 0.125 -6.71875 -0.078125 -8.050781 -0.234375 -9.5625 C -0.398438 -11.070312 -0.570312 -12.726562 -0.75 -14.53125 C -0.75 -14.53125 -0.769531 -14.691406 -0.8125 -15.015625 C -0.851562 -15.347656 -0.90625 -15.644531 -0.96875 -15.90625 C -1.007812 -16.09375 -1.238281 -16.691406 -1.65625 -17.703125 C -2.082031 -18.722656 -2.53125 -19.832031 -3 -21.03125 C -3.46875 -22.238281 -3.8125 -23.210938 -4.03125 -23.953125 C -4.125 -24.410156 -4.101562 -24.820312 -3.96875 -25.1875 C -3.832031 -25.5625 -3.4375 -25.921875 -2.78125 -26.265625 C -1.945312 -26.703125 -1.546875 -27.390625 -1.578125 -28.328125 C -1.609375 -31.628906 -1.582031 -34.816406 -1.5 -37.890625 C -1.425781 -40.972656 -1.304688 -43.742188 -1.140625 -46.203125 C -0.984375 -48.671875 -0.789062 -50.5625 -0.5625 -51.875 C -0.3125 -52.664062 0.1875 -53.140625 0.9375 -53.296875 C 1.226562 -53.359375 1.941406 -53.394531 3.078125 -53.40625 C 4.210938 -53.414062 5.476562 -53.382812 6.875 -53.3125 C 8.269531 -53.238281 9.617188 -53.15625 10.921875 -53.0625 C 12.222656 -52.976562 13.203125 -52.878906 13.859375 -52.765625 C 14.617188 -52.660156 15.078125 -52.226562 15.234375 -51.46875 C 15.242188 -51.425781 15.242188 -51.351562 15.234375 -51.25 C 15.234375 -51.144531 15.234375 -51.09375 15.234375 -51.09375 C 15.023438 -49.375 14.859375 -47.019531 14.734375 -44.03125 C 14.609375 -41.050781 14.5625 -37.675781 14.59375 -33.90625 L 14.609375 -33.453125 C 14.773438 -32.703125 15.226562 -32.40625 15.96875 -32.5625 C 16.375 -32.644531 16.820312 -32.753906 17.3125 -32.890625 C 17.8125 -33.023438 18.257812 -33.132812 18.65625 -33.21875 C 19.0625 -33.300781 19.367188 -33.519531 19.578125 -33.875 C 19.785156 -34.238281 19.878906 -34.601562 19.859375 -34.96875 C 19.898438 -38 19.929688 -40.921875 19.953125 -43.734375 C 19.984375 -46.546875 20.078125 -49.050781 20.234375 -51.25 C 20.390625 -53.457031 20.59375 -55.191406 20.84375 -56.453125 Z M 20.84375 -56.453125 "/></g></g></g><g fill="#8075ff" fill-opacity="1"><g transform="translate(148.358587, 244.206321)"><g><path d="M 30.875 -55.453125 C 31.738281 -55.316406 32.304688 -54.988281 32.578125 -54.46875 C 32.847656 -53.945312 33.054688 -53.335938 33.203125 -52.640625 C 33.640625 -50.585938 34.03125 -48.078125 34.375 -45.109375 C 34.71875 -42.148438 34.925781 -38.953125 35 -35.515625 C 35.082031 -32.078125 34.941406 -28.65625 34.578125 -25.25 C 34.210938 -21.84375 33.53125 -18.671875 32.53125 -15.734375 C 31.53125 -12.804688 30.144531 -10.335938 28.375 -8.328125 C 26.601562 -6.328125 24.34375 -5.035156 21.59375 -4.453125 C 20.1875 -4.148438 18.460938 -4.054688 16.421875 -4.171875 C 14.390625 -4.285156 12.363281 -4.582031 10.34375 -5.0625 C 8.332031 -5.550781 6.671875 -6.179688 5.359375 -6.953125 C 3.609375 -8.003906 2.191406 -9.457031 1.109375 -11.3125 C 0.0351562 -13.175781 -0.726562 -15.1875 -1.1875 -17.34375 C -1.875 -20.550781 -2.316406 -23.847656 -2.515625 -27.234375 C -2.722656 -30.617188 -2.753906 -33.867188 -2.609375 -36.984375 C -2.460938 -40.109375 -2.238281 -42.878906 -1.9375 -45.296875 C -1.644531 -47.710938 -1.335938 -49.515625 -1.015625 -50.703125 C -0.878906 -51.296875 -0.710938 -51.742188 -0.515625 -52.046875 C -0.316406 -52.347656 0.101562 -52.566406 0.75 -52.703125 C 1.457031 -52.859375 2.566406 -52.941406 4.078125 -52.953125 C 5.597656 -52.960938 7.164062 -52.914062 8.78125 -52.8125 C 10.394531 -52.707031 11.753906 -52.535156 12.859375 -52.296875 C 13.609375 -52.203125 14.0625 -51.785156 14.21875 -51.046875 C 14.238281 -50.941406 14.242188 -50.832031 14.234375 -50.71875 C 14.234375 -50.613281 14.234375 -50.5625 14.234375 -50.5625 C 13.984375 -48.3125 13.753906 -45.765625 13.546875 -42.921875 C 13.347656 -40.078125 13.222656 -37.195312 13.171875 -34.28125 C 13.117188 -31.363281 13.148438 -28.65625 13.265625 -26.15625 C 13.378906 -23.664062 13.59375 -21.695312 13.90625 -20.25 C 14.125 -19.238281 14.429688 -18.460938 14.828125 -17.921875 C 15.234375 -17.390625 15.660156 -17.171875 16.109375 -17.265625 C 16.804688 -17.410156 17.316406 -17.945312 17.640625 -18.875 C 17.960938 -19.8125 18.238281 -21.351562 18.46875 -23.5 C 18.769531 -26.03125 18.957031 -28.816406 19.03125 -31.859375 C 19.113281 -34.910156 19.117188 -37.925781 19.046875 -40.90625 C 18.984375 -43.882812 18.894531 -46.578125 18.78125 -48.984375 C 18.664062 -51.390625 18.550781 -53.210938 18.4375 -54.453125 C 18.414062 -55.335938 18.773438 -55.859375 19.515625 -56.015625 C 19.828125 -56.078125 20.46875 -56.101562 21.4375 -56.09375 C 22.40625 -56.09375 23.492188 -56.066406 24.703125 -56.015625 C 25.921875 -55.960938 27.085938 -55.882812 28.203125 -55.78125 C 29.328125 -55.6875 30.21875 -55.578125 30.875 -55.453125 Z M 30.875 -55.453125 "/></g></g></g><g fill="#8075ff" fill-opacity="1"><g transform="translate(187.937619, 235.746839)"><g><path d="M 14.21875 -4.375 C 14.332031 -3.613281 13.988281 -3.148438 13.1875 -2.984375 C 12.789062 -2.898438 12.050781 -2.859375 10.96875 -2.859375 C 9.894531 -2.859375 8.707031 -2.890625 7.40625 -2.953125 C 6.113281 -3.015625 4.90625 -3.109375 3.78125 -3.234375 C 2.65625 -3.367188 1.796875 -3.472656 1.203125 -3.546875 C 0.109375 -3.785156 -0.535156 -4.359375 -0.734375 -5.265625 C -1.054688 -6.972656 -1.34375 -9.109375 -1.59375 -11.671875 C -1.851562 -14.242188 -2.070312 -17.050781 -2.25 -20.09375 C -2.4375 -23.144531 -2.550781 -26.25 -2.59375 -29.40625 C -2.632812 -32.570312 -2.632812 -35.597656 -2.59375 -38.484375 C -2.5625 -41.367188 -2.46875 -43.96875 -2.3125 -46.28125 C -2.15625 -48.59375 -1.945312 -50.375 -1.6875 -51.625 C -1.488281 -52.351562 -0.984375 -52.804688 -0.171875 -52.984375 C 0.273438 -53.078125 1.035156 -53.117188 2.109375 -53.109375 C 3.191406 -53.109375 4.378906 -53.078125 5.671875 -53.015625 C 6.972656 -52.953125 8.234375 -52.867188 9.453125 -52.765625 C 10.679688 -52.660156 11.707031 -52.535156 12.53125 -52.390625 C 12.851562 -52.347656 13.164062 -52.21875 13.46875 -52 C 13.769531 -51.789062 13.953125 -51.53125 14.015625 -51.21875 C 14.023438 -51.175781 14.03125 -51.101562 14.03125 -51 C 14.03125 -50.894531 14.03125 -50.84375 14.03125 -50.84375 C 13.800781 -48.957031 13.613281 -46.320312 13.46875 -42.9375 C 13.332031 -39.5625 13.265625 -35.722656 13.265625 -31.421875 C 13.265625 -27.128906 13.34375 -22.65625 13.5 -18 C 13.664062 -13.351562 13.90625 -8.8125 14.21875 -4.375 Z M 14.21875 -4.375 "/></g></g></g><g fill="#8075ff" fill-opacity="1"><g transform="translate(206.262632, 231.830115)"><g><path d="M 2.484375 -17.015625 C 5.679688 -17.503906 8.144531 -17.195312 9.875 -16.09375 C 11.601562 -14.988281 12.703125 -13.332031 13.171875 -11.125 C 13.671875 -8.78125 13.375 -6.664062 12.28125 -4.78125 C 11.195312 -2.894531 9.351562 -1.675781 6.75 -1.125 C 4.195312 -0.570312 2.191406 -0.941406 0.734375 -2.234375 C -0.710938 -3.523438 -1.664062 -5.25 -2.125 -7.40625 C -2.613281 -10.644531 -1.789062 -13.40625 0.34375 -15.6875 C 0.96875 -16.40625 1.679688 -16.847656 2.484375 -17.015625 Z M 2.484375 -17.015625 "/></g></g></g><g fill="#8075ff" fill-opacity="1"><g transform="translate(223.010497, 228.250486)"><g><path d="M 13.546875 -37.296875 C 13.890625 -38.160156 14.332031 -39.109375 14.875 -40.140625 C 15.414062 -41.171875 16.082031 -42.097656 16.875 -42.921875 C 17.664062 -43.742188 18.613281 -44.269531 19.71875 -44.5 C 20.0625 -44.570312 20.382812 -44.507812 20.6875 -44.3125 C 20.988281 -44.125 21.1875 -43.804688 21.28125 -43.359375 C 21.5 -42.359375 21.753906 -41.050781 22.046875 -39.4375 C 22.335938 -37.820312 22.625 -36.101562 22.90625 -34.28125 C 23.195312 -32.457031 23.445312 -30.695312 23.65625 -29 C 23.75 -28.03125 23.363281 -27.375 22.5 -27.03125 C 21.476562 -26.65625 20.242188 -26.179688 18.796875 -25.609375 C 17.359375 -25.046875 16.082031 -24.515625 14.96875 -24.015625 C 14.394531 -23.785156 14.007812 -23.4375 13.8125 -22.96875 C 13.625 -22.507812 13.523438 -22.070312 13.515625 -21.65625 L 13.953125 -4.546875 C 13.878906 -3.648438 13.472656 -3.125 12.734375 -2.96875 C 12.179688 -2.84375 11.113281 -2.796875 9.53125 -2.828125 C 7.945312 -2.859375 6.285156 -2.960938 4.546875 -3.140625 C 2.804688 -3.316406 1.363281 -3.539062 0.21875 -3.8125 C -0.5625 -4.007812 -1.035156 -4.484375 -1.203125 -5.234375 C -1.222656 -5.335938 -1.234375 -5.46875 -1.234375 -5.625 C -1.242188 -5.78125 -1.25 -5.859375 -1.25 -5.859375 C -1.3125 -7.148438 -1.382812 -8.910156 -1.46875 -11.140625 C -1.5625 -13.367188 -1.664062 -15.804688 -1.78125 -18.453125 C -1.90625 -21.109375 -2.03125 -23.785156 -2.15625 -26.484375 C -2.289062 -29.179688 -2.410156 -31.644531 -2.515625 -33.875 C -2.628906 -36.101562 -2.726562 -37.882812 -2.8125 -39.21875 C -2.84375 -39.632812 -2.734375 -40 -2.484375 -40.3125 C -2.234375 -40.625 -1.9375 -40.816406 -1.59375 -40.890625 C -1.289062 -40.960938 -0.628906 -41.039062 0.390625 -41.125 C 1.421875 -41.21875 2.570312 -41.28125 3.84375 -41.3125 C 5.125 -41.34375 6.335938 -41.363281 7.484375 -41.375 C 8.640625 -41.382812 9.488281 -41.347656 10.03125 -41.265625 C 10.675781 -41.191406 11.148438 -40.988281 11.453125 -40.65625 C 11.765625 -40.332031 11.988281 -39.972656 12.125 -39.578125 L 12.75 -37.359375 C 12.84375 -36.910156 12.988281 -36.707031 13.1875 -36.75 C 13.289062 -36.769531 13.410156 -36.953125 13.546875 -37.296875 Z M 13.546875 -37.296875 "/></g></g></g><g fill="#8075ff" fill-opacity="1"><g transform="translate(250.948634, 222.279087)"><g><path d="M 14.78125 -15.40625 C 15.382812 -15.539062 15.847656 -16.113281 16.171875 -17.125 C 16.503906 -18.132812 16.71875 -19.410156 16.8125 -20.953125 C 16.90625 -22.492188 16.894531 -24.078125 16.78125 -25.703125 C 16.664062 -27.328125 16.46875 -28.8125 16.1875 -30.15625 C 15.84375 -31.769531 15.394531 -32.519531 14.84375 -32.40625 C 14.382812 -32.300781 13.988281 -31.726562 13.65625 -30.6875 C 13.332031 -29.65625 13.097656 -28.363281 12.953125 -26.8125 C 12.816406 -25.257812 12.785156 -23.640625 12.859375 -21.953125 C 12.929688 -20.265625 13.117188 -18.722656 13.421875 -17.328125 C 13.722656 -15.921875 14.175781 -15.28125 14.78125 -15.40625 Z M 31.890625 -30.53125 C 32.242188 -28.875 32.429688 -27 32.453125 -24.90625 C 32.484375 -22.820312 32.300781 -20.675781 31.90625 -18.46875 C 31.507812 -16.269531 30.851562 -14.195312 29.9375 -12.25 C 29.019531 -10.3125 27.789062 -8.640625 26.25 -7.234375 C 24.71875 -5.828125 22.800781 -4.875 20.5 -4.375 C 19.40625 -4.144531 17.859375 -3.988281 15.859375 -3.90625 C 13.859375 -3.820312 11.722656 -4.003906 9.453125 -4.453125 C 7.179688 -4.910156 5.003906 -5.863281 2.921875 -7.3125 C 1.617188 -8.226562 0.53125 -9.585938 -0.34375 -11.390625 C -1.226562 -13.203125 -1.898438 -15.179688 -2.359375 -17.328125 C -2.679688 -18.828125 -2.851562 -20.597656 -2.875 -22.640625 C -2.894531 -24.679688 -2.710938 -26.773438 -2.328125 -28.921875 C -1.941406 -31.066406 -1.300781 -33.113281 -0.40625 -35.0625 C 0.476562 -37.007812 1.660156 -38.675781 3.140625 -40.0625 C 4.628906 -41.445312 6.472656 -42.375 8.671875 -42.84375 C 9.671875 -43.0625 11.15625 -43.144531 13.125 -43.09375 C 15.101562 -43.050781 17.203125 -42.847656 19.421875 -42.484375 C 21.648438 -42.117188 23.59375 -41.507812 25.25 -40.65625 C 26.9375 -39.820312 28.351562 -38.4375 29.5 -36.5 C 30.65625 -34.570312 31.453125 -32.582031 31.890625 -30.53125 Z M 31.890625 -30.53125 "/></g></g></g><g fill="#8075ff" fill-opacity="0.4"><g transform="translate(293.59194, 218.510393)"><g/></g></g><g fill="#8075ff" fill-opacity="1"><g transform="translate(287.387086, 214.490861)"><g/></g></g><g clip-path="url(#6a0f4444b7)"><g clip-path="url(#7c6715f96b)"><g clip-path="url(#473f2141b3)"><g clip-path="url(#d6e04cbcdb)"><path fill="#000000" d="M 128.257812 113.992188 Z M 184.179688 286.824219 L 184.1875 286.824219 Z M 201.074219 283.941406 C 201.214844 283.9375 201.355469 283.953125 201.488281 284 C 217.292969 289.113281 224.171875 286.621094 234.945312 271.863281 C 235.121094 271.625 235.382812 271.460938 235.675781 271.410156 C 239.527344 270.722656 243.410156 269.394531 247.167969 268.113281 C 254.027344 265.769531 261.125 263.351562 268.515625 264.582031 C 268.960938 264.660156 269.324219 264.988281 269.441406 265.429688 C 270.226562 268.40625 274.253906 268.628906 277.722656 268.238281 C 277.753906 268.164062 277.785156 268.09375 277.8125 268.023438 C 277.972656 267.644531 278.242188 267.011719 278.972656 266.835938 C 279.75 266.648438 280.410156 267.128906 281.074219 267.683594 C 281.285156 267.859375 281.429688 268.109375 281.472656 268.382812 C 281.71875 269.875 282.394531 270.078125 282.613281 270.148438 C 283.703125 270.472656 285.5625 269.652344 286.851562 268.269531 C 287.171875 267.925781 287.675781 267.808594 288.117188 267.984375 C 288.558594 268.15625 288.847656 268.582031 288.851562 269.058594 C 288.855469 271.957031 291.492188 274.84375 295.902344 276.785156 C 300.441406 278.785156 304.976562 278.921875 306.203125 277.800781 C 306.347656 277.667969 306.683594 277.363281 306.367188 276.414062 C 306.257812 276.09375 306.296875 275.746094 306.46875 275.457031 C 307.648438 273.476562 307.683594 270.851562 307.71875 268.316406 C 307.738281 267.121094 307.75 265.988281 307.890625 264.960938 C 307.589844 262.9375 307.332031 261.433594 307.125 260.222656 C 306.425781 256.101562 306.351562 255.671875 308.097656 253.609375 C 308.957031 252.597656 310.394531 250.902344 312.570312 247.097656 C 319.152344 234.289062 324.96875 233.449219 329.21875 232.835938 C 333.027344 232.289062 335.378906 231.953125 336.320312 220.066406 C 335.71875 219.929688 335.183594 219.597656 334.796875 219.195312 C 334.132812 218.496094 333.957031 217.632812 334.347656 216.941406 C 334.484375 216.699219 334.707031 216.445312 335.0625 216.277344 C 334.84375 215.757812 334.71875 215.171875 334.972656 214.570312 C 335.03125 214.421875 335.125 214.257812 335.269531 214.09375 C 334.984375 213.414062 334.621094 212.539062 334.476562 212.191406 C 331.839844 209.042969 328.015625 209.007812 325.953125 209.269531 C 321.621094 209.824219 317.53125 212.554688 316.015625 215.910156 C 315.761719 216.476562 315.105469 216.738281 314.53125 216.507812 C 313.925781 216.265625 313.378906 215.859375 312.847656 215.46875 C 312.585938 215.277344 312.347656 215.105469 312.128906 214.960938 C 312.152344 215.226562 312.109375 215.511719 311.9375 215.800781 C 311.761719 216.097656 311.507812 216.292969 311.191406 216.417969 C 311.316406 216.882812 311.308594 217.382812 311.019531 217.863281 C 310.164062 219.285156 307.921875 218.953125 304.601562 218.28125 C 304.039062 218.171875 303.550781 218.070312 303.238281 218.03125 C 303.195312 218.023438 303.15625 218.015625 303.117188 218.007812 C 297.964844 216.757812 294.558594 213.761719 293.773438 209.882812 C 292.65625 209.839844 291.765625 209.496094 291.113281 208.859375 C 289.582031 207.355469 289.835938 204.734375 290.078125 202.195312 C 290.222656 200.691406 290.371094 199.140625 290.113281 198.078125 C 288.992188 196.042969 288.695312 193.914062 288.40625 191.851562 C 288.136719 189.9375 287.882812 188.128906 286.996094 186.472656 C 286.832031 186.167969 286.8125 185.804688 286.945312 185.488281 C 287.851562 183.285156 287.757812 180.140625 287.683594 177.617188 C 287.667969 177.039062 287.652344 176.484375 287.648438 175.964844 C 287.644531 175.710938 287.726562 175.464844 287.875 175.265625 C 287.910156 175.128906 287.921875 174.824219 287.929688 174.640625 C 287.953125 174.007812 287.992188 173.050781 288.914062 172.734375 C 289.152344 172.652344 289.378906 172.640625 289.589844 172.679688 C 291.238281 166.230469 291.308594 157.378906 286.425781 151.511719 C 286.238281 151.285156 286.144531 150.996094 286.160156 150.703125 C 286.28125 148.617188 285.78125 144.972656 284.75 144.242188 C 284.667969 144.183594 284.53125 144.085938 284.140625 144.25 C 283.816406 144.382812 283.449219 144.363281 283.140625 144.195312 C 279.847656 142.398438 278.195312 139.65625 276.597656 137.007812 C 275.648438 135.425781 274.667969 133.800781 273.324219 132.351562 C 272.3125 132.675781 271.566406 132.355469 271.167969 132.09375 C 270.023438 131.339844 269.550781 129.628906 269.621094 128.113281 C 268.398438 126.910156 268.394531 125.945312 268.789062 124.894531 C 268.820312 124.8125 268.84375 124.746094 268.859375 124.6875 C 266.320312 124.933594 265.394531 123.023438 264.761719 121.710938 C 264.21875 120.59375 263.75 119.625 262.597656 119.191406 C 262.402344 119.113281 262.230469 118.988281 262.097656 118.824219 C 260.800781 117.171875 260.269531 114.945312 259.753906 112.792969 C 259.542969 111.910156 259.339844 111.0625 259.089844 110.292969 C 258.789062 110.335938 258.464844 110.3125 258.136719 110.144531 C 257.074219 109.609375 257.121094 108.28125 257.167969 106.992188 C 257.171875 106.933594 257.171875 106.871094 257.175781 106.804688 C 256.65625 106.835938 256.175781 106.734375 255.828125 106.308594 C 255.242188 105.589844 255.648438 104.800781 255.949219 104.222656 C 255.960938 104.199219 255.972656 104.171875 255.988281 104.144531 C 255.4375 103.648438 255.222656 102.910156 255.113281 102.539062 C 255.101562 102.496094 255.085938 102.441406 255.066406 102.386719 C 254.613281 102.390625 254.167969 102.140625 253.980469 101.714844 C 250.992188 95.03125 246.746094 91.863281 241.371094 92.289062 C 240.914062 92.433594 240.597656 92.554688 240.410156 92.660156 C 240.484375 92.929688 240.460938 93.222656 240.332031 93.480469 C 240.160156 93.828125 239.828125 94.066406 239.445312 94.117188 C 239.445312 94.117188 236.933594 94.4375 236.683594 94.472656 C 233.5 95.007812 233.246094 95.84375 232.78125 97.359375 C 232.414062 98.550781 231.964844 100.015625 230.222656 101.441406 C 229.644531 105.402344 225.824219 105.628906 222.730469 105.8125 C 220.65625 105.9375 218.511719 106.0625 217.558594 107.175781 C 217.324219 107.449219 216.976562 107.597656 216.613281 107.578125 C 205.15625 106.90625 202.882812 109.84375 200.476562 112.957031 C 198.609375 115.371094 196.675781 117.867188 191.066406 118.585938 C 190.742188 118.632812 190.417969 118.53125 190.171875 118.320312 C 189.921875 118.109375 189.773438 117.800781 189.765625 117.476562 C 189.679688 114.617188 186.464844 113.214844 184.578125 112.839844 C 184.171875 112.757812 183.835938 112.460938 183.707031 112.066406 C 182.609375 108.730469 182.039062 108.78125 180.792969 108.890625 C 179.925781 108.964844 178.804688 109.0625 177.453125 108.472656 C 175.570312 111.335938 173.179688 111.285156 170.855469 111.234375 C 169.902344 111.214844 168.914062 111.195312 167.84375 111.339844 C 167.410156 111.402344 166.976562 111.210938 166.730469 110.847656 C 166.410156 110.375 166.179688 110.058594 166.015625 109.851562 C 165.894531 109.890625 165.757812 109.914062 165.609375 109.921875 C 165.152344 109.941406 164.703125 109.773438 164.164062 109.363281 C 161.242188 110.742188 160.101562 110.675781 158.699219 109.226562 C 158.292969 108.808594 157.839844 108.34375 156.882812 107.941406 C 154.941406 109.109375 153.101562 108.292969 151.464844 107.570312 C 151.398438 107.539062 151.335938 107.511719 151.269531 107.484375 C 151.039062 108.394531 150.722656 109.0625 150.007812 109.421875 C 149.089844 109.878906 148.050781 109.550781 146.566406 108.824219 C 144.585938 107.816406 142.460938 106.566406 141.632812 104.328125 C 140.824219 104.269531 139.972656 104.339844 139.519531 104.792969 C 138.960938 105.351562 139.007812 106.53125 139.144531 107.421875 C 139.191406 107.742188 139.105469 108.066406 138.90625 108.316406 C 138.703125 108.570312 138.40625 108.726562 138.085938 108.75 C 137.003906 108.832031 136.167969 108.886719 135.53125 108.925781 C 135.066406 108.953125 134.640625 108.980469 134.339844 109.007812 C 134.0625 110.144531 133.164062 111.617188 129.933594 114.136719 C 129.875 114.183594 129.804688 114.226562 129.738281 114.261719 C 129.75 114.289062 129.761719 114.316406 129.769531 114.339844 C 129.9375 114.75 130.039062 114.996094 130.070312 115.242188 C 130.121094 115.605469 129.996094 115.96875 129.734375 116.222656 C 129.476562 116.476562 129.109375 116.59375 128.75 116.539062 C 128.097656 116.441406 127.773438 116.753906 127.011719 117.667969 C 126.207031 118.636719 125.109375 119.960938 122.980469 119.875 C 122.734375 119.863281 122.496094 119.773438 122.304688 119.617188 C 121.171875 118.699219 120.566406 118.367188 120.273438 118.242188 C 120.242188 118.332031 120.207031 118.433594 120.183594 118.515625 C 119.972656 119.160156 119.65625 120.136719 118.648438 120.601562 C 117.949219 120.925781 117.117188 120.917969 116.058594 120.570312 C 115.175781 121.273438 114.695312 122.898438 114.265625 124.355469 C 113.957031 125.394531 113.667969 126.375 113.222656 127.171875 C 112.929688 127.695312 112.285156 127.910156 111.734375 127.660156 C 111.125 127.382812 110.667969 127.824219 109.496094 129.804688 C 109.09375 130.484375 108.710938 131.136719 108.257812 131.664062 C 108.882812 133.039062 109.875 135.773438 108.65625 137.167969 C 108.261719 137.621094 107.546875 138.046875 106.324219 137.796875 C 105.402344 139.433594 104.738281 141.539062 104.089844 143.585938 C 103.597656 145.148438 103.085938 146.761719 102.46875 148.136719 C 102.398438 148.292969 102.296875 148.429688 102.167969 148.539062 C 99.605469 150.75 99.324219 151.402344 99.300781 151.546875 C 99.304688 151.554688 99.363281 151.671875 99.402344 151.757812 C 99.890625 152.804688 100.226562 154.0625 98.546875 156.871094 C 98.339844 157.214844 97.996094 157.417969 97.601562 157.433594 C 97.617188 157.585938 97.636719 157.738281 97.652344 157.855469 C 97.769531 158.769531 97.902344 159.804688 97.167969 160.445312 C 96.960938 160.625 96.695312 160.726562 96.421875 160.730469 C 96.214844 160.78125 95.496094 161.433594 95.035156 162.421875 C 94.71875 163.105469 94.71875 163.546875 94.769531 163.640625 C 94.769531 163.628906 94.851562 163.664062 95.019531 163.675781 C 95.332031 163.695312 95.625 163.839844 95.828125 164.078125 C 96.03125 164.320312 96.128906 164.628906 96.097656 164.941406 C 96.003906 165.898438 95.59375 166.6875 94.910156 167.214844 C 94.421875 167.59375 93.824219 167.820312 93.148438 167.890625 C 93.101562 169.183594 92.929688 170.332031 91.925781 170.859375 C 91.273438 171.203125 90.570312 171.105469 89.910156 170.835938 C 89.8125 171.304688 89.75 171.867188 89.691406 172.394531 C 89.582031 173.421875 89.464844 174.46875 89.109375 175.367188 C 89.582031 175.78125 89.898438 176.324219 90.015625 176.949219 C 90.207031 177.949219 89.839844 178.964844 89.0625 179.605469 C 88.578125 180 87.988281 180.210938 87.355469 180.21875 C 86.90625 182.773438 86.007812 184.539062 84.621094 185.59375 C 82.550781 187.167969 79.945312 186.746094 77.851562 186.40625 C 76.621094 186.207031 75.226562 185.980469 74.785156 186.390625 C 74.636719 186.527344 74.304688 187.03125 74.445312 188.714844 C 74.488281 189.214844 74.199219 189.6875 73.734375 189.878906 C 73.457031 189.992188 73.15625 189.992188 72.886719 189.890625 C 72.449219 190.328125 71.785156 191.386719 71.507812 191.824219 C 71.25 192.234375 71.066406 192.53125 70.894531 192.734375 C 70.589844 193.105469 70.085938 193.25 69.628906 193.09375 C 68.851562 192.824219 68.144531 192.28125 67.457031 191.757812 C 67.101562 191.484375 66.539062 191.054688 66.222656 190.917969 C 66.152344 191.050781 66.042969 191.324219 65.945312 191.835938 C 65.875 192.179688 65.660156 192.472656 65.351562 192.636719 C 65.042969 192.800781 64.679688 192.816406 64.359375 192.679688 C 62.492188 191.886719 61.039062 192.207031 60.746094 192.730469 C 60.53125 193.117188 60.980469 193.984375 62.257812 194.890625 C 62.582031 195.121094 62.765625 195.503906 62.742188 195.902344 C 62.660156 197.28125 62.890625 197.546875 62.894531 197.550781 C 62.980469 197.609375 63.382812 197.640625 63.648438 197.660156 C 64.441406 197.722656 65.53125 197.804688 66.582031 198.648438 C 66.730469 198.769531 66.847656 198.921875 66.921875 199.101562 L 67.464844 200.386719 L 68.320312 200.054688 C 68.742188 199.886719 69.222656 199.984375 69.546875 200.300781 C 69.871094 200.617188 69.980469 201.09375 69.828125 201.519531 C 69.675781 201.949219 69.660156 201.996094 70.570312 202.617188 C 71.363281 203.15625 72.558594 203.976562 72.714844 205.628906 C 72.714844 205.648438 72.71875 205.667969 72.71875 205.6875 C 72.730469 206.003906 73.074219 206.238281 73.179688 206.300781 C 73.492188 206.492188 73.78125 206.519531 73.914062 206.507812 C 73.921875 206.449219 73.917969 206.347656 73.894531 206.203125 C 73.816406 205.777344 73.980469 205.347656 74.316406 205.082031 C 74.65625 204.816406 75.113281 204.765625 75.503906 204.9375 C 76.003906 205.164062 76.664062 205.675781 76.984375 206.832031 C 77.539062 208.863281 76.78125 212.0625 75.925781 213.605469 C 75.976562 213.691406 76.117188 213.792969 76.46875 214.011719 C 77.113281 214.421875 78.191406 215.105469 78.234375 216.652344 C 78.246094 217.042969 78.058594 217.410156 77.742188 217.632812 C 77.613281 217.722656 77.496094 217.804688 77.386719 217.882812 C 78.15625 218.003906 78.921875 218.289062 79.355469 219.027344 C 79.597656 219.441406 79.683594 219.914062 79.609375 220.449219 C 80.710938 220.996094 81.664062 221.917969 82.59375 222.820312 C 83.835938 224.023438 84.71875 224.824219 85.527344 224.886719 L 85.675781 224.453125 C 85.859375 223.914062 86.410156 223.59375 86.96875 223.691406 L 88.050781 223.882812 C 88.273438 223.921875 88.476562 224.019531 88.644531 224.175781 C 88.871094 224.386719 89.003906 224.683594 89.011719 224.996094 C 89.046875 226.589844 89.980469 226.902344 92.636719 227.390625 C 95 227.820312 98.234375 228.414062 99.253906 231.917969 C 99.429688 232.519531 99.09375 233.15625 98.492188 233.34375 C 97.667969 233.605469 97.492188 234.882812 97.363281 236.402344 L 97.351562 236.542969 C 97.308594 237.054688 96.933594 237.472656 96.429688 237.574219 C 96.117188 237.640625 95.859375 237.699219 95.652344 237.753906 C 96.054688 237.972656 96.53125 238.207031 96.90625 238.390625 C 98.90625 239.375 100.792969 240.304688 100.703125 241.917969 C 100.625 243.28125 99.132812 243.96875 98.015625 244.367188 C 97.839844 244.429688 97.652344 244.449219 97.46875 244.421875 C 95.632812 244.167969 95.039062 244.40625 94.902344 244.480469 C 94.90625 244.625 94.992188 245.144531 95.851562 246.296875 C 97.757812 246.140625 100.792969 245.9375 102.035156 247.585938 C 102.15625 247.742188 102.230469 247.925781 102.257812 248.121094 C 102.65625 250.96875 102.875 250.953125 104.570312 250.8125 C 105.417969 250.746094 106.457031 250.660156 107.71875 250.867188 C 111.949219 249.75 113.742188 252.59375 115.058594 254.683594 C 116 256.179688 116.703125 257.207031 117.789062 257.550781 C 118.980469 252.675781 122.140625 247.667969 126.714844 247.339844 C 127.25 247.320312 127.753906 247.644531 127.90625 248.167969 C 128.144531 248.980469 130.417969 250.019531 131.925781 250.707031 C 134.25 251.773438 136.261719 252.691406 136.304688 254.351562 C 136.339844 255.824219 134.710938 256.667969 134.175781 256.945312 C 133.882812 257.097656 133.535156 257.117188 133.226562 256.996094 C 133.039062 256.921875 132.832031 256.835938 132.617188 256.742188 C 132.175781 256.550781 131.175781 256.132812 130.808594 256.167969 C 130.785156 256.226562 130.746094 256.359375 130.730469 256.617188 C 130.726562 256.703125 130.714844 256.789062 130.691406 256.871094 C 130.1875 258.648438 128.746094 258.90625 128.054688 259.027344 C 128.035156 259.03125 128.015625 259.035156 127.992188 259.039062 C 128.664062 259.90625 129.085938 260.769531 129.46875 261.546875 C 130.339844 263.320312 130.816406 264.296875 133.570312 264.488281 C 133.882812 264.507812 134.171875 264.65625 134.375 264.898438 C 134.574219 265.136719 134.671875 265.445312 134.640625 265.757812 C 134.550781 266.644531 134.695312 267.414062 135.019531 267.769531 C 135.128906 267.886719 135.328125 268.042969 135.808594 268.035156 C 136.019531 268.035156 136.230469 268.089844 136.414062 268.199219 C 139.179688 269.847656 141.179688 270.925781 142.503906 271.636719 C 144.746094 272.847656 145.503906 273.253906 145.597656 274.226562 C 145.683594 275.085938 145.082031 275.582031 144.445312 276.105469 C 143.527344 276.863281 141.855469 278.246094 140.347656 281.671875 C 142.199219 284.449219 144.980469 283.757812 149.242188 282.421875 C 152.148438 281.511719 155.152344 280.570312 157.730469 281.644531 C 161.101562 281.957031 164.453125 282.949219 167.699219 283.910156 C 173.113281 285.511719 178.230469 287.023438 183.597656 285.773438 C 186.964844 282.582031 190.34375 283.527344 193.332031 284.367188 C 195.90625 285.089844 198.128906 285.714844 200.492188 284.136719 C 200.667969 284.019531 200.871094 283.953125 201.074219 283.941406 Z M 215.203125 288.734375 C 211.226562 288.933594 206.738281 288.089844 201.289062 286.363281 C 198.21875 288.140625 195.300781 287.324219 192.710938 286.59375 C 189.792969 285.777344 187.488281 285.128906 185 287.636719 C 184.851562 287.789062 184.664062 287.894531 184.460938 287.945312 C 178.375 289.480469 172.613281 287.773438 167.042969 286.128906 C 163.703125 285.140625 160.542969 284.203125 157.34375 283.933594 C 157.210938 283.921875 157.078125 283.886719 156.957031 283.832031 C 155.144531 282.996094 152.613281 283.789062 149.933594 284.628906 C 145.910156 285.890625 140.902344 287.457031 138.042969 282.332031 C 137.871094 282.023438 137.851562 281.65625 137.984375 281.328125 C 139.6875 277.164062 141.671875 275.402344 142.824219 274.449219 C 142.445312 274.234375 141.945312 273.964844 141.40625 273.671875 C 140.109375 272.972656 138.167969 271.925781 135.492188 270.339844 C 134.402344 270.265625 133.714844 269.761719 133.316406 269.332031 C 132.605469 268.558594 132.367188 267.535156 132.316406 266.667969 C 129.140625 266.125 128.253906 264.320312 127.394531 262.566406 C 126.984375 261.734375 126.558594 260.867188 125.835938 260.066406 C 125.679688 259.886719 125.578125 259.664062 125.550781 259.425781 C 125.289062 257.171875 127.007812 256.867188 127.652344 256.75 C 128.234375 256.648438 128.347656 256.605469 128.433594 256.34375 C 128.519531 255.339844 128.902344 254.617188 129.570312 254.203125 C 130.796875 253.4375 132.378906 254.121094 133.53125 254.617188 C 133.542969 254.625 133.554688 254.628906 133.566406 254.632812 C 133.722656 254.53125 133.828125 254.449219 133.898438 254.386719 C 133.421875 253.933594 131.90625 253.242188 130.964844 252.8125 C 129.066406 251.945312 127.113281 251.050781 126.167969 249.761719 C 123.023438 250.558594 120.585938 254.980469 119.828125 259.046875 C 119.726562 259.589844 119.246094 259.980469 118.703125 259.988281 C 115.6875 260.019531 114.253906 257.742188 113.101562 255.917969 C 111.625 253.570312 110.726562 252.378906 108.105469 253.160156 C 107.929688 253.210938 107.742188 253.222656 107.558594 253.183594 C 106.480469 252.980469 105.566406 253.054688 104.757812 253.117188 C 102.019531 253.34375 100.65625 252.765625 100.03125 248.835938 C 99.503906 248.503906 98.109375 248.433594 95.890625 248.613281 C 95.710938 248.628906 95.546875 248.640625 95.402344 248.652344 C 95.023438 248.667969 94.664062 248.519531 94.429688 248.226562 C 93.335938 246.886719 91.988281 244.921875 92.878906 243.339844 C 93.710938 241.859375 95.839844 241.890625 97.492188 242.09375 C 97.832031 241.960938 98.054688 241.847656 98.203125 241.761719 C 97.695312 241.355469 96.554688 240.796875 95.886719 240.46875 C 93.980469 239.53125 92.472656 238.789062 92.65625 237.386719 C 92.796875 236.296875 93.902344 235.804688 95.128906 235.496094 C 95.265625 234.238281 95.570312 232.667969 96.6875 231.738281 C 95.921875 230.4375 94.421875 230.066406 92.222656 229.664062 C 90.28125 229.308594 87.957031 228.882812 87.070312 226.863281 C 86.972656 226.933594 86.867188 226.988281 86.753906 227.027344 C 84.402344 227.792969 82.585938 226.035156 80.984375 224.480469 C 79.972656 223.5 78.925781 222.484375 77.953125 222.300781 C 77.601562 222.230469 77.296875 222.003906 77.136719 221.679688 C 76.972656 221.355469 76.972656 220.976562 77.132812 220.652344 C 77.230469 220.453125 77.277344 220.3125 77.300781 220.222656 C 77.011719 220.136719 76.425781 220.105469 76.121094 220.089844 C 75.253906 220.046875 74.175781 219.992188 73.882812 218.964844 C 73.609375 218.003906 74.371094 217.226562 75.671875 216.265625 C 75.570312 216.1875 75.429688 216.09375 75.230469 215.964844 C 74.558594 215.539062 73.4375 214.828125 73.601562 213.191406 C 73.621094 212.996094 73.691406 212.808594 73.804688 212.648438 C 74.242188 212.023438 74.816406 210.136719 74.863281 208.625 C 74.140625 208.933594 73.230469 208.886719 72.363281 208.484375 C 71.21875 207.953125 70.476562 206.9375 70.410156 205.824219 C 70.355469 205.320312 70.015625 205.039062 69.265625 204.527344 C 68.726562 204.160156 67.96875 203.640625 67.625 202.808594 L 67.257812 202.953125 C 66.675781 203.179688 66.015625 202.902344 65.773438 202.324219 L 64.921875 200.300781 C 64.488281 200.042969 64.011719 200.007812 63.472656 199.964844 C 61.589844 199.824219 60.410156 199.152344 60.414062 196.394531 C 58.214844 194.605469 58.078125 192.773438 58.730469 191.605469 C 59.582031 190.078125 61.703125 189.527344 64.039062 190.132812 C 64.296875 189.519531 64.707031 188.953125 65.386719 188.695312 C 66.640625 188.222656 67.820312 189.125 68.859375 189.921875 C 69.117188 190.117188 69.375 190.3125 69.621094 190.484375 C 70.46875 189.140625 71.226562 188.054688 72.105469 187.636719 C 72.15625 186.292969 72.515625 185.34375 73.214844 184.691406 C 74.484375 183.519531 76.382812 183.824219 78.21875 184.125 C 80.050781 184.417969 81.941406 184.726562 83.222656 183.75 C 84.273438 182.949219 84.953125 181.261719 85.234375 178.734375 C 85.273438 178.375 85.480469 178.054688 85.792969 177.871094 C 86.105469 177.683594 86.484375 177.65625 86.820312 177.792969 C 87.160156 177.933594 87.441406 177.941406 87.601562 177.8125 C 87.71875 177.714844 87.777344 177.542969 87.746094 177.382812 C 87.691406 177.09375 87.359375 176.949219 87.171875 176.886719 C 86.792969 176.765625 86.503906 176.460938 86.402344 176.078125 C 86.300781 175.691406 86.40625 175.285156 86.675781 174.996094 C 87.136719 174.5 87.273438 173.25 87.394531 172.140625 C 87.542969 170.796875 87.695312 169.40625 88.449219 168.484375 C 88.824219 168.023438 89.484375 167.921875 89.980469 168.246094 C 90.347656 168.488281 90.601562 168.617188 90.769531 168.6875 C 90.835938 168.296875 90.847656 167.628906 90.859375 167.148438 L 90.867188 166.671875 C 90.875 166.339844 91.027344 166.027344 91.285156 165.816406 C 91.539062 165.601562 91.875 165.511719 92.199219 165.5625 C 92.683594 165.636719 93.09375 165.601562 93.367188 165.464844 C 92.757812 165.011719 92.414062 164.285156 92.4375 163.386719 C 92.476562 161.679688 93.863281 159.402344 95.421875 158.660156 C 95.40625 158.492188 95.378906 158.300781 95.359375 158.152344 C 95.238281 157.203125 95.089844 156.023438 95.945312 155.351562 C 96.230469 155.121094 96.574219 155.003906 96.949219 154.996094 C 97.695312 153.566406 97.492188 153.128906 97.308594 152.738281 C 96.503906 151.019531 97.121094 149.863281 100.460938 146.957031 C 100.980469 145.757812 101.421875 144.363281 101.886719 142.890625 C 102.683594 140.371094 103.507812 137.769531 104.847656 135.78125 C 105.15625 135.328125 105.734375 135.152344 106.242188 135.359375 C 106.585938 135.5 106.804688 135.542969 106.925781 135.554688 C 107.027344 134.921875 106.492188 133.117188 105.84375 131.988281 C 105.546875 131.464844 105.695312 130.800781 106.1875 130.460938 C 106.585938 130.1875 107.074219 129.359375 107.507812 128.628906 C 108.363281 127.183594 109.589844 125.117188 111.554688 125.25 C 111.726562 124.789062 111.882812 124.253906 112.046875 123.699219 C 112.675781 121.582031 113.382812 119.179688 115.464844 118.238281 C 115.753906 118.109375 116.082031 118.101562 116.378906 118.222656 C 117.378906 118.632812 117.675781 118.507812 117.679688 118.503906 C 117.769531 118.460938 117.921875 117.996094 117.984375 117.800781 C 118.1875 117.175781 118.496094 116.234375 119.496094 115.9375 C 120.460938 115.652344 121.578125 116.105469 123.421875 117.550781 C 124.140625 117.464844 124.582031 116.976562 125.234375 116.1875 C 125.75 115.570312 126.386719 114.804688 127.324219 114.433594 C 126.996094 113.511719 126.839844 112.597656 127.566406 112.003906 C 128.074219 111.597656 128.644531 111.664062 129.105469 111.84375 C 131.972656 109.503906 132.089844 108.570312 132.132812 108.25 C 132.316406 106.808594 133.214844 106.753906 135.382812 106.617188 C 135.765625 106.59375 136.214844 106.5625 136.746094 106.527344 C 136.71875 105.074219 137.101562 103.941406 137.886719 103.152344 C 138.910156 102.132812 140.53125 101.789062 142.707031 102.125 C 143.183594 102.199219 143.5625 102.5625 143.660156 103.035156 C 143.988281 104.628906 145.410156 105.640625 147.59375 106.753906 C 148.339844 107.117188 148.730469 107.25 148.925781 107.292969 C 149.035156 106.988281 149.15625 106.363281 149.265625 105.800781 L 149.292969 105.667969 C 149.355469 105.335938 149.5625 105.050781 149.855469 104.882812 C 150.148438 104.714844 150.5 104.683594 150.816406 104.800781 C 151.382812 105.003906 151.898438 105.234375 152.398438 105.453125 C 154.167969 106.238281 154.992188 106.546875 156 105.746094 C 156.304688 105.503906 156.710938 105.429688 157.082031 105.550781 C 158.949219 106.167969 159.796875 107.039062 160.355469 107.617188 C 160.894531 108.171875 161.054688 108.339844 163.820312 106.957031 C 164.257812 106.738281 164.78125 106.816406 165.132812 107.152344 C 165.265625 107.277344 165.371094 107.371094 165.457031 107.441406 C 165.652344 107.328125 165.902344 107.242188 166.214844 107.261719 C 166.894531 107.308594 167.386719 107.765625 168.242188 108.96875 C 169.214844 108.886719 170.101562 108.90625 170.90625 108.921875 C 173.417969 108.976562 174.679688 109.003906 175.980469 106.398438 C 176.128906 106.101562 176.394531 105.886719 176.714844 105.800781 C 177.035156 105.714844 177.378906 105.773438 177.65625 105.957031 C 178.824219 106.738281 179.644531 106.667969 180.59375 106.585938 C 182.941406 106.390625 184.335938 106.96875 185.6875 110.722656 C 188.335938 111.417969 191.171875 113.152344 191.902344 116.113281 C 195.691406 115.363281 197.074219 113.578125 198.652344 111.539062 C 201.15625 108.296875 203.996094 104.628906 216.222656 105.238281 C 217.835938 103.789062 220.253906 103.644531 222.59375 103.503906 C 226.296875 103.285156 227.824219 102.972656 227.972656 100.746094 C 227.996094 100.40625 228.167969 100.089844 228.445312 99.890625 C 229.910156 98.824219 230.230469 97.78125 230.570312 96.679688 C 231.21875 94.574219 232.050781 92.90625 236.320312 92.1875 L 236.328125 92.226562 C 236.6875 92.148438 237.238281 92.070312 238.097656 91.957031 C 238.113281 91.921875 238.125 91.882812 238.140625 91.84375 C 238.585938 90.71875 240.011719 90.285156 240.777344 90.054688 C 240.851562 90.03125 240.96875 90.003906 241.046875 89.996094 C 247.265625 89.453125 252.347656 92.914062 255.753906 100.050781 C 255.917969 100.082031 256.074219 100.136719 256.222656 100.214844 C 256.949219 100.59375 257.167969 101.34375 257.328125 101.886719 C 257.367188 102.019531 257.425781 102.210938 257.476562 102.335938 C 257.824219 102.332031 258.171875 102.488281 258.390625 102.757812 C 258.636719 103.054688 258.738281 103.453125 258.628906 103.824219 C 258.582031 103.972656 258.53125 104.121094 258.476562 104.257812 C 258.605469 104.28125 258.726562 104.328125 258.839844 104.390625 C 259.109375 104.546875 259.308594 104.804688 259.382812 105.105469 C 259.53125 105.671875 259.503906 106.355469 259.476562 107.078125 C 259.472656 107.222656 259.46875 107.398438 259.464844 107.578125 C 259.636719 107.539062 259.820312 107.539062 259.996094 107.582031 C 260.34375 107.664062 260.632812 107.90625 260.78125 108.230469 C 261.328125 109.445312 261.667969 110.875 262 112.253906 C 262.429688 114.050781 262.875 115.90625 263.746094 117.164062 C 265.519531 117.976562 266.277344 119.542969 266.839844 120.703125 C 267.605469 122.289062 267.839844 122.648438 269.230469 122.273438 C 269.671875 122.15625 270.136719 122.308594 270.425781 122.660156 C 271.570312 124.0625 271.167969 125.132812 270.953125 125.707031 C 270.917969 125.800781 270.863281 125.945312 270.859375 125.992188 C 270.863281 125.992188 270.933594 126.226562 271.5625 126.753906 C 271.875 127.015625 272.027344 127.417969 271.96875 127.820312 C 271.800781 128.886719 272.132812 129.960938 272.4375 130.160156 C 272.496094 130.199219 272.695312 130.148438 272.964844 129.976562 C 273.417969 129.695312 274.003906 129.757812 274.386719 130.128906 C 276.234375 131.921875 277.425781 133.898438 278.578125 135.8125 C 280.003906 138.179688 281.355469 140.421875 283.832031 141.925781 C 284.640625 141.742188 285.425781 141.886719 286.085938 142.355469 C 288.3125 143.929688 288.480469 148.828125 288.472656 150.371094 C 294.066406 157.425781 293.644531 167.644531 291.347656 174.933594 C 291.21875 175.335938 290.886719 175.640625 290.472656 175.722656 C 290.359375 175.742188 290.25 175.75 290.136719 175.738281 C 290.097656 175.921875 290.042969 176.101562 289.960938 176.273438 C 289.96875 176.679688 289.980469 177.109375 289.996094 177.550781 C 290.070312 180.121094 290.164062 183.285156 289.273438 185.859375 C 290.160156 187.730469 290.429688 189.660156 290.691406 191.53125 C 290.96875 193.507812 291.234375 195.378906 292.199219 197.066406 C 292.246094 197.148438 292.28125 197.234375 292.304688 197.324219 C 292.726562 198.808594 292.550781 200.644531 292.378906 202.417969 C 292.195312 204.320312 291.988281 206.476562 292.730469 207.207031 C 293.066406 207.535156 293.707031 207.640625 294.640625 207.535156 C 294.953125 207.5 295.269531 207.59375 295.511719 207.792969 C 295.753906 207.996094 295.90625 208.289062 295.925781 208.605469 C 296.265625 213.410156 301.363281 215.191406 303.605469 215.746094 C 303.988281 215.800781 304.488281 215.902344 305.058594 216.015625 C 305.925781 216.191406 307.734375 216.554688 308.703125 216.550781 C 308.640625 216.460938 308.5625 216.355469 308.464844 216.234375 C 308.183594 215.890625 308.125 215.421875 308.308594 215.019531 C 308.496094 214.617188 308.894531 214.347656 309.335938 214.347656 C 309.359375 214.347656 309.386719 214.347656 309.410156 214.347656 C 309.320312 214.109375 309.238281 213.835938 309.1875 213.53125 C 309.082031 212.914062 309.484375 212.324219 310.101562 212.203125 C 311.839844 211.851562 313.160156 212.828125 314.21875 213.609375 C 314.316406 213.679688 314.414062 213.753906 314.507812 213.820312 C 316.664062 210.261719 320.976562 207.574219 325.660156 206.976562 C 330.027344 206.414062 333.933594 207.832031 336.375 210.863281 L 336.351562 210.882812 C 336.59375 211.265625 336.941406 212.101562 337.773438 214.105469 C 337.902344 214.414062 337.890625 214.761719 337.742188 215.0625 C 337.640625 215.269531 337.476562 215.441406 337.277344 215.554688 C 337.339844 215.679688 337.414062 215.8125 337.472656 215.914062 C 337.691406 216.300781 337.917969 216.699219 337.988281 217.136719 C 338.019531 217.335938 338 217.539062 337.929688 217.722656 C 338.027344 217.757812 338.121094 217.800781 338.210938 217.859375 C 338.554688 218.089844 338.75 218.488281 338.722656 218.902344 C 337.769531 233.25 334.769531 234.371094 329.550781 235.125 C 325.589844 235.699219 320.660156 236.40625 314.597656 248.199219 C 312.292969 252.238281 310.769531 254.03125 309.859375 255.109375 C 308.8125 256.347656 308.8125 256.347656 309.40625 259.835938 C 309.609375 261.023438 309.886719 262.65625 310.199219 264.789062 C 310.21875 264.902344 310.21875 265.015625 310.199219 265.128906 C 310.0625 266.050781 310.046875 267.164062 310.03125 268.347656 C 309.992188 270.898438 309.953125 273.769531 308.699219 276.195312 C 309.097656 277.953125 308.304688 279.011719 307.761719 279.507812 C 305.328125 281.734375 299.484375 280.886719 294.96875 278.902344 C 290.640625 276.996094 287.804688 274.285156 286.871094 271.253906 C 285.378906 272.242188 283.546875 272.84375 281.945312 272.359375 C 281.230469 272.140625 280.066406 271.535156 279.46875 269.84375 C 279.433594 269.894531 279.398438 269.945312 279.359375 269.996094 C 279.175781 270.25 278.894531 270.417969 278.582031 270.460938 C 271.199219 271.453125 268.421875 269.160156 267.453125 266.761719 C 260.882812 265.875 254.578125 268.027344 247.914062 270.300781 C 244.21875 271.5625 240.40625 272.863281 236.539062 273.601562 C 229.09375 283.714844 223.179688 288.328125 215.203125 288.734375 " fill-opacity="1" fill-rule="nonzero"/></g></g></g></g></svg>